<?xml version="1.0" standalone="no"?>
<!DOCTYPE svg PUBLIC "-//W3C//DTD SVG 1.1//EN" "http://www.w3.org/Graphics/SVG/1.1/DTD/svg11.dtd" >
<svg xmlns="http://www.w3.org/2000/svg" xmlns:xlink="http://www.w3.org/1999/xlink" version="1.1">
<metadata>
Created by FontForge 20150913 at Tue Apr 26 22:33:30 2016
 By Jimmy Wärting
</metadata>
<defs>
<font id="icomoon" horiz-adv-x="1024" >
  <font-face 
    font-family="icomoon"
    font-weight="400"
    font-stretch="normal"
    units-per-em="1024"
    panose-1="0 0 0 0 0 0 0 0 0 0"
    ascent="960"
    descent="-64"
    bbox="-5 -146.848 2568.67 1024"
    underline-thickness="0"
    underline-position="0"
    unicode-range="U+0001-E768"
  />
<missing-glyph horiz-adv-x="512" 
 />
    <glyph glyph-name=".notdef" horiz-adv-x="512" 
 />
    <glyph glyph-name="NULL" horiz-adv-x="0" 
d="M0 0v0v0z" />
    <glyph glyph-name="NULL" horiz-adv-x="0" 
d="M0 0v0v0z" />
    <glyph glyph-name="uni0001" horiz-adv-x="0" 
d="M0 0v0v0z" />
    <glyph glyph-name="space" unicode=" " horiz-adv-x="512" 
d="M0 0v0v0z" />
    <glyph glyph-name="uniE600" unicode="&#xe600;" 
d="M485 605l153 -154l-157 -160l-51 48l113 112l-106 106zM512 933q101 0 189.5 -38t154 -103.5t103.5 -154t38 -189.5t-38 -189.5t-103.5 -154t-154 -103.5t-189.5 -38t-189.5 38t-154 103.5t-103.5 154t-38 189.5t38 189.5t103.5 154t154 103.5t189.5 38zM512 32
q87 0 163 32t132.5 88.5t88.5 132.5t32 163q0 86 -32 161.5t-88.5 132.5t-132.5 89.5t-163 32.5t-163 -32t-132.5 -88.5t-88.5 -132.5t-32 -163t32 -163t88.5 -132.5t132.5 -88.5t163 -32z" />
    <glyph glyph-name="uniE601" unicode="&#xe601;" 
d="M67 448l166 166l36 -38l-105 -102h829v-52h-829l100 -105l-36 -35z" />
    <glyph glyph-name="uniE602" unicode="&#xe602;" 
d="M31 448l59 59l18 -18l-29 -28h932v-26h-933l28 -28l-19 -18z" />
    <glyph glyph-name="uniE603" unicode="&#xe603;" 
d="M993 448l-166 -166l-36 35l105 105h-829v52h829l-100 105l36 35z" />
    <glyph glyph-name="uniE604" unicode="&#xe604;" 
d="M1011 447l-59 -58l-18 18l29 28h-932v26h933l-28 28l19 18z" />
    <glyph glyph-name="uniE605" unicode="&#xe605;" 
d="M621 455l266 -266l-95 -96l-273 266l-266 -266l-96 96l266 266l-266 273l96 95l266 -266l273 266l95 -95z" />
    <glyph glyph-name="uniE606" unicode="&#xe606;" 
d="M899 873q18 0 31 -12.5t14 -30.5v-532q0 -18 -12.5 -30.5t-30.5 -12.5h-363l-280 -229q-3 -1 -4.5 -2t-4.5 -1q-1 0 -2.5 1t-2.5 1q-3 1 -5 4.5t-2 7.5v218h-112q-18 0 -30.5 12.5t-12.5 30.5v532q0 18 12.5 30.5t30.5 12.5h774zM916 830q0 7 -4.5 12t-12.5 5h-774
q-7 0 -12 -4.5t-5 -12.5v-534q0 -6 4.5 -11.5t12.5 -5.5h124q7 0 10.5 -3.5t3.5 -8.5v-205l261 214q3 1 4.5 2t3.5 1h367q7 0 12 4.5t5 12.5v534z" />
    <glyph glyph-name="uniE607" unicode="&#xe607;" 
d="M975 451l-6 -6q-3 -5 -39.5 -50t-98 -97.5t-143.5 -95t-176 -42.5t-176 42.5t-143.5 95t-98 98t-39.5 50.5l-6 7l6 7q3 4 39.5 47.5t98 94.5t143.5 92.5t176 41.5t176 -41.5t143.5 -92.5t98 -94.5t39.5 -47.5zM512 185q81 0 153.5 35.5t130 81t96.5 89.5t52 60
q-14 16 -52.5 58.5t-96 87.5t-130 79.5t-153.5 34.5t-153.5 -34.5t-130 -79.5t-96.5 -87.5t-52 -58.5q13 -16 52 -60t96.5 -89.5t130 -81t153.5 -35.5zM512 602q64 0 109 -45t45 -109q0 -63 -45 -108.5t-109 -45.5t-109 45t-45 109t45 109t109 45z" />
    <glyph glyph-name="uniE608" unicode="&#xe608;" 
d="M567 571h157l-7 -150h-150v-417h-157v417h-110v150h110v130q0 15 4 33.5t9 34.5q5 20 14.5 36.5t19.5 31.5q16 10 32 20.5t37 20.5q20 10 45 12t50 2q5 0 15.5 -2t25.5 -12h17h17h17.5h16.5l-6 -136h-96q-20 5 -31.5 0.5t-16.5 -14.5t-9 -21.5t-4 -26.5v-109z" />
    <glyph glyph-name="uniE609" unicode="&#xe609;" 
d="M512 893q68 0 128.5 -26t105.5 -71t70.5 -105t24.5 -129q0 -50 -14.5 -96.5t-41.5 -86.5t-64.5 -71.5t-83.5 -50.5l-19 -108q0 -12 -9 -21t-22 -9h-152q-11 0 -21 9t-10 21l-18 108q-46 18 -84 49.5t-65 71.5t-41.5 87t-14.5 97q0 69 26 129t71 105t105.5 71t128.5 26z
M621 281q44 16 79.5 45t61.5 65.5t41 79.5t18 88q0 63 -23.5 118t-64.5 96t-96 64.5t-118 23.5t-118 -23.5t-96 -64.5t-64.5 -96t-23.5 -118q0 -46 13.5 -89.5t39 -80.5t61 -66t79.5 -46q2 -1 4.5 -3.5t3.5 -6.5l21 -116v-1.5v-1.5v-3t1 -1h62v260l-89 78q-5 4 -5.5 9.5
t3.5 11.5q4 5 10 5t11 -4l83 -73v0v0h1h1l82 75q4 4 10.5 3t10.5 -5q3 -4 2.5 -10t-4.5 -10l-89 -80v-256h62l0.5 1t0.5 2v2v1l21 117q0 3 2 5.5t6 4.5zM606 32q6 0 10 -4.5t4 -9.5t-4 -9.5t-10 -4.5h-184q-7 0 -11.5 4.5t-4.5 9.5t4.5 9.5t11.5 4.5h184z" />
    <glyph glyph-name="uniE60A" unicode="&#xe60a;" 
d="M901 475q14 -33 12 -81t-10.5 -95.5t-19 -86.5t-14.5 -54q-12 -33 -37 -56.5t-88 -32.5q-18 -2 -43.5 -3.5t-55.5 -1.5v0v0q-19 0 -71.5 2t-75.5 15l-37 22q-8 4 -23 13.5t-22 12.5l-7.5 1t-22.5 1h-16.5h-17.5v-9q0 -6 -4.5 -10t-9.5 -4h-164q-26 0 -43.5 18t-17.5 44
v285q0 25 17.5 43t43.5 18h164h1h2q3 2 5.5 3t5.5 2q23 13 42.5 25t37.5 35q29 37 47.5 76t34.5 78q18 43 28.5 63.5t24.5 26.5q6 3 12 4t12 1q24 0 41 -24.5t25 -70.5q0 -4 1 -9t2 -8q3 -9 5 -19t2 -17q0 -35 -2.5 -63t-9.5 -48h99q53 0 90.5 -25t56.5 -71zM324 146v0v0v0
v0v346h-152q-15 0 -25 -10.5t-10 -24.5v-285q0 -16 10.5 -26t24.5 -10h152v10zM843 170q3 7 13.5 43t19 82t11 93t-10.5 79q-17 38 -48 58t-75 20h-118q-3 0 -6 1.5t-4 3.5q-3 3 -3 6.5t1 5.5q9 20 13 49.5t4 70.5q0 5 -1.5 13t-3.5 16q0 5 -1 10t-3 9q-5 34 -15.5 53.5
t-24.5 19.5q-3 0 -6 -1l-6 -2q-8 -4 -18.5 -24.5t-22.5 -52.5q-17 -40 -36 -80.5t-50 -78.5q-20 -27 -42 -40.5t-46 -26.5q-4 -1 -7 -3t-7 -3v-333h17.5h16.5q26 0 33 -1t8 -3q10 -3 27.5 -14.5t20.5 -12.5l37 -20q12 -7 49 -10.5t86 -3.5q27 0 52 1.5t42 3.5q59 9 77.5 29
t26.5 43z" />
    <glyph glyph-name="uniE60B" unicode="&#xe60b;" 
d="M300 858h137v-813h-137v813zM587 858h137v-813h-137v813z" />
    <glyph glyph-name="uniE60C" unicode="&#xe60c;" 
d="M934 769v-2.5v-1.5v-0.5v-0.5v-2v-2l-221 -553q-2 -9 -11 -12.5t-18 -0.5l-134 47l-137 -131h-2q-4 -2 -6.5 -3.5t-5.5 -1.5h-1h-1h-1q-3 0 -6 1l-6 2l-1 1l-1 1v0v0v0q-1 0 -2 0.5t-1 1.5q-1 1 -1.5 2l-0.5 1v0v0q0 1 -1 1.5t-1 2.5l-87 201l-179 46q-7 1 -13 8t-6 14
q-1 8 3.5 15t10.5 11l794 379q4 1 7 1h6q-1 0 -0.5 0h0.5q4 0 7.5 -2t6.5 -4q1 0 1.5 -1l0.5 -1l0.5 -1l0.5 -1q2 -1 2 -2v-1q1 -4 2.5 -7t1.5 -5zM189 397l111 -29l354 251zM335 332l52 -123l21 104q1 3 2.5 6.5t4.5 5.5v1v1l239 230zM478 318l198 -70l169 424zM451 272
l-16 -73l60 58z" />
    <glyph glyph-name="uniE60D" unicode="&#xe60d;" 
d="M887 475q8 -2 13 -10.5t5 -16.5t-5 -15t-13 -12l-713 -465q-2 -2 -7 -4t-10 -2t-9.5 0.5t-7.5 2.5q-8 5 -12.5 13t-4.5 18v928q0 10 4.5 17.5t12.5 10.5q8 5 17 5t17 -5l713 -465v0z" />
    <glyph glyph-name="uniE60E" unicode="&#xe60e;" 
d="M573 151q23 3 40 -8.5t22 -32.5q2 -20 -9.5 -38t-31.5 -23q-21 -3 -39.5 -5t-39.5 -2q-44 0 -87.5 9.5t-83 28t-75 46t-64.5 63.5v3v3l-2 2l-2 2q-26 33 -45.5 70.5t-30 77.5t-13 82t3.5 84l-92 51l266 160v-310l-82 44q0 -54 17.5 -103.5t50.5 -90.5l2 -2l2 -2l1.5 -1.5
l1.5 -1.5q27 -33 60.5 -57t71 -37t77.5 -16.5t81 4.5zM1004 325l-267 -160l-3 310l82 -44q0 54 -17.5 104t-50.5 90q0 3 -2 4t-2 3l-1.5 2l-1.5 2q-27 33 -60.5 56.5t-71 37t-77.5 16.5t-81 -4q-23 -3 -40 8.5t-22 32.5q-2 23 9.5 39.5t31.5 21.5q55 11 109.5 7t104.5 -22
t94.5 -49.5t80.5 -75.5l2 -1.5l2 -1.5l1.5 -2l1.5 -2q27 -33 46 -70.5t30 -77.5t13.5 -82t-4.5 -84z" />
    <glyph glyph-name="uniE60F" unicode="&#xe60f;" 
d="M993 5q8 -8 7.5 -21t-9.5 -25q-4 -4 -9.5 -6t-11.5 -2t-12.5 2.5t-10.5 8.5l-159 171q-30 -27 -65.5 -48t-74 -36t-80 -23t-84.5 -8q-95 0 -179 36.5t-146.5 99t-99 146.5t-36.5 179t36.5 179t99 146.5t146.5 99t179 36.5t179 -36.5t146.5 -99t99 -146.5t36.5 -179
q0 -43 -7.5 -84.5t-22 -79.5t-35.5 -73t-48 -65zM84 481q0 -82 31.5 -155t86 -127t127 -85.5t155.5 -31.5q82 0 155 31.5t127 85.5t85.5 127t31.5 155q0 83 -31.5 155.5t-85.5 127t-127 86t-155 31.5q-83 0 -155.5 -31.5t-127 -86t-86 -127t-31.5 -155.5z" />
    <glyph glyph-name="uniE610" unicode="&#xe610;" 
d="M855 704q27 4 54 11.5t54 19.5q-20 -31 -43 -54.5t-50 -43.5q6 -96 -26.5 -193.5t-100 -176t-167 -128t-228.5 -49.5q-77 0 -148.5 21.5t-132.5 60.5q73 -8 143 11t128 65q-62 0 -108.5 37.5t-65.5 90.5q19 -4 41 -1t41 6q-66 16 -107.5 67.5t-41.5 117.5
q19 -12 41.5 -19t45.5 -7q-61 42 -78.5 113t17.5 133q34 -42 77 -76.5t92 -59.5t103 -40t112 -19q-10 43 0.5 83.5t35.5 72t62 51t81 19.5q38 0 72 -15t61 -42q31 8 61 19.5t57 26.5q-12 -30 -33.5 -58.5t-48.5 -43.5z" />
    <glyph glyph-name="uniE611" unicode="&#xe611;" 
d="M855 330q8 -7 13.5 -18t1.5 -23q8 -15 4 -30.5t-19 -15.5h-113q-23 -4 -39.5 6t-31.5 25q-12 11 -23.5 25.5t-22.5 25.5q-4 8 -8.5 12.5t-12.5 8.5q-11 7 -19.5 4t-16.5 -15q-4 -15 -7 -28t-3 -28q0 -19 -8.5 -27.5t-27.5 -8.5q-42 -4 -83.5 4.5t-80.5 31.5
q-34 23 -59.5 50t-52.5 58q-42 65 -77.5 133.5t-66.5 137.5q-7 15 -0.5 23t21.5 8h56.5h56.5q11 0 18.5 -4.5t11.5 -16.5q16 -38 35 -76t42 -72q8 -8 13.5 -17.5t17.5 -13.5q7 -8 15 -7t15 12q0 8 3 15.5t3 15.5q0 27 -1 53.5t-5 53.5q0 16 -10 26.5t-25 14.5q-8 4 -8 6.5
t8 -1.5q7 12 15.5 16.5t19.5 4.5h128q16 -4 19 -12.5t7 -23.5v-148q0 -4 4.5 -18t16.5 -18q7 0 14 5.5t11 9.5q23 27 39.5 57t32.5 61q8 15 15 28t10 28q4 12 12 16.5t19 4.5h123h5h5q16 -4 20.5 -12.5t0.5 -23.5q-8 -23 -22 -45.5t-29 -41.5q-16 -19 -31.5 -41.5
t-30.5 -45.5t-14.5 -35.5t19.5 -31.5t38.5 -39t38.5 -43z" />
    <glyph glyph-name="uniE612" unicode="&#xe612;" 
d="M766 422v-32v-15.5v-15.5v-19q0 -14 -10 -24.5t-26 -10.5h-254l-106 -86q-2 -1 -5 -2t-7 -1h-4t-4 2q-4 2 -7 7t-3 10v70h-48q-14 0 -25 10t-11 25v304q0 14 10 25t26 11h176q7 0 12.5 -5.5t5.5 -13.5q0 -7 -5.5 -12.5t-12.5 -5.5h-173v-299h65q8 0 13.5 -5.5t5.5 -13.5
v-49l80 64q3 2 5.5 3t6.5 1h259v78q0 8 6 13.5t13 5.5q8 0 13.5 -5.5t5.5 -13.5h-2z" />
    <glyph glyph-name="uniE613" unicode="&#xe613;" 
d="M975 51q12 -16 11.5 -36t-15.5 -38q-6 -6 -15 -9t-18 -3t-20 3.5t-17 12.5l-135 143q-58 -46 -130.5 -72t-152.5 -26q-93 0 -175.5 36t-143.5 97.5t-96 143.5t-35 174q0 93 35 175.5t96 143.5t143.5 96t175.5 35q94 0 176 -35.5t143 -97t96.5 -143.5t35.5 -174
q0 -77 -26 -148.5t-72 -130.5zM135 477q0 -73 27.5 -137t75 -112t112 -76t137.5 -28q74 0 138.5 28t112 76t75 112t27.5 137t-27.5 137.5t-75 112t-112 75t-138.5 27.5q-73 0 -137.5 -28t-112 -76t-75 -112t-27.5 -136z" />
    <glyph glyph-name="uniE614" unicode="&#xe614;" 
d="M855 504q13 -30 12 -72.5t-9.5 -84t-21 -77t-22.5 -52.5q-15 -39 -44.5 -62t-83.5 -31q-15 -3 -37.5 -4t-49.5 -1q-35 0 -77 4.5t-61 16.5l-31 20q-8 8 -17.5 12.5t-13.5 8.5h-10.5h-14.5q-4 -12 -11.5 -16.5t-19.5 -4.5h-138q-31 0 -54 21.5t-23 55.5v241q0 30 21 53.5
t56 23.5h143q19 11 32.5 18.5t29.5 27.5q23 26 37 57t29 65q16 35 27.5 57.5t34.5 30.5q7 3 15 4t15 1q16 0 43.5 -17t38.5 -86q4 0 4.5 -3t0.5 -7q0 -8 2.5 -18t2.5 -18q0 -19 -0.5 -35t-4.5 -31h52q49 0 89 -26t59 -72zM307 233v246h-102v-246h102zM753 238
q23 62 35 133.5t0 102.5q-11 26 -31 38.5t-50 12.5h-103q-8 0 -17.5 3.5t-13.5 11.5q-7 12 -7 21t7 20q4 15 7.5 38.5t3.5 53.5q0 4 -2.5 10.5t-2.5 10.5q-4 4 -5 7.5t-1 7.5q-3 12 -4.5 19.5t-5.5 11.5q-4 -12 -10 -25.5t-10 -20.5q-16 -35 -33 -72t-44 -72
q-19 -23 -39 -36.5t-43 -24.5v-241v0v0q23 0 32.5 -0.5t13.5 -4.5q12 -4 27 -13t19 -12l31 -16q8 -4 34 -7t68 -3q23 0 42.5 0.5t34.5 4.5q42 4 52.5 17t14.5 24z" />
    <glyph glyph-name="uniE615" unicode="&#xe615;" 
d="M978 453l-15 -20q-4 -4 -40.5 -48t-97 -94.5t-141 -92.5t-172.5 -42q-94 0 -175 42t-141 92.5t-95.5 94.5t-39.5 48l-15 20l21 21q1 5 36.5 48.5t95.5 92.5t140.5 89.5t172.5 40.5t172 -41t139.5 -91t95 -93t38.5 -46zM512 228q63 0 121.5 26.5t107 62.5t84.5 73t56 58
q-20 23 -56 59.5t-84.5 71t-107 59.5t-121.5 25t-121.5 -25t-107 -59.5t-84.5 -71t-56 -59.5q20 -23 56 -60.5t84.5 -73t107 -61t121.5 -25.5zM512 591q61 0 102 -41t41 -102q0 -58 -41 -100.5t-102 -42.5q-58 0 -100.5 41t-42.5 102q0 58 41 100.5t102 42.5z" />
    <glyph glyph-name="uniE616" unicode="&#xe616;" 
d="M860 871q31 0 53 -25.5t22 -56.5v-478q0 -30 -22 -52.5t-53 -22.5h-314l-239 -191q-10 -5 -17 -9t-17 -4q-5 0 -10 3t-10 3q-11 6 -19.5 19.5t-8.5 28.5v157h-61q-31 0 -53 22.5t-22 52.5v478q0 31 22 53t53 22h696zM840 339v430h-649v-437h82q26 0 40.5 -13.5
t14.5 -34.5v-95l170 136q11 5 17.5 9.5t16.5 4.5h301h7z" />
    <glyph glyph-name="uniE617" unicode="&#xe617;" 
d="M578 139q14 3 26 -5.5t15 -20.5q2 -15 -6 -26t-21 -14q-17 -4 -35.5 -5.5t-37.5 -1.5q-43 0 -84 9t-78.5 27t-70.5 43.5t-61 59.5q-1 0 -2.5 1t-1.5 3l-2.5 2.5l-2.5 2.5q-51 61 -71.5 135.5t-10.5 153.5l-104 59l264 157l4 -307l-95 54q-4 -56 13 -110.5t55 -98.5
q0 -2 1 -2.5t1 -2.5q2 -1 2.5 -2t2.5 -2q27 -34 61.5 -58.5t73 -39t80.5 -17.5t85 6zM997 334l-264 -157l-5 307l98 -56q3 56 -14 110t-54 99q-2 0 -3.5 1.5t-1.5 2.5q-1 2 -2 2.5t-2 2.5q-28 34 -62 58.5t-73 38.5t-81 17.5t-85 -5.5q-15 -2 -27 5t-14 23q-1 15 6.5 26
t21.5 14q51 11 102 7t98.5 -21t90 -47t75.5 -71q0 -1 1 -1.5t1 -2.5l2.5 -2.5l2.5 -2.5q51 -61 71.5 -135.5t10.5 -153.5z" />
    <glyph glyph-name="uniE618" unicode="&#xe618;" 
d="M496 595l143 -143l-147 -151l-58 57l90 94l-86 86zM512 890q91 0 171.5 -35t140.5 -95t95 -140.5t35 -171.5q0 -92 -35 -172.5t-95 -140.5t-140.5 -94.5t-171.5 -34.5q-92 0 -172.5 35t-140.5 95t-94.5 140.5t-34.5 171.5t35 171.5t95 140.5t140.5 95t171.5 35zM512 88
q74 0 139.5 28.5t114.5 77.5t77.5 114.5t28.5 139.5q0 75 -28.5 141t-77.5 114.5t-114.5 76.5t-139.5 28q-75 0 -141 -28.5t-114.5 -77.5t-76.5 -114.5t-28 -139.5q0 -75 28.5 -141t77.5 -114.5t114.5 -76.5t139.5 -28z" />
    <glyph glyph-name="uniE619" unicode="&#xe619;" 
d="M159 571h153v-492h-153v492zM328 724q0 -38 -27 -65t-65 -27q-39 0 -66 27t-27 65q0 39 27 66t66 27q38 0 65 -27t27 -66zM701 586q-76 0 -112 -41l-36 -41v67h-143v-492h148v30v71.5v84.5v70q0 54 23 83.5t69 29.5q42 0 62 -29.5t20 -83.5v-70v-84.5v-71.5v-30h154v30.5
v76.5v101v105q0 100 -54 147t-131 47z" />
    <glyph glyph-name="uniE61A" unicode="&#xe61a;" 
d="M864 -3h-4l-348 148v0q0 1 -52 70t-116.5 155t-123.5 164t-73 98q-30 43 -7.5 98t89.5 107q37 28 73.5 42.5t70.5 14.5q24 0 44.5 -8.5t33.5 -23.5q13 -17 71.5 -94t123 -163t116.5 -155.5t53 -71.5v0zM737 370q-17 23 -45 61t-61.5 83t-69 93t-65.5 91q-16 -3 -46.5 -12
t-64.5 -33l184 -254q19 -22 45.5 -35.5t57.5 -13.5h3.5h0.5q18 0 33.5 5.5t27.5 14.5zM201 669v0v0q12 19 33.5 46t52.5 48q30 25 62 37t57 21l-2.5 2l-2.5 2q-6 3 -12.5 5.5t-15.5 2.5q-22 0 -48.5 -12t-54.5 -33q-27 -22 -45 -43t-24 -39q-6 -15 -4.5 -24.5t4.5 -12.5z
M233 624q10 -9 16.5 -19t12.5 -22q12 22 33.5 50t52.5 53q34 21 63.5 33.5t51.5 15.5l-4 8q-6 9 -12.5 15.5t-12.5 13.5q-9 0 -46 -9.5t-77 -40.5q-30 -21 -49 -50t-29 -48zM299 538q31 -41 65.5 -87.5t67.5 -90t61.5 -80t47.5 -57.5q9 12 17 27.5t11 33.5q6 28 0.5 54.5
t-20.5 48.5q-15 18 -39.5 50t-50.5 67t-50.5 67.5t-39.5 52.5l-9 8q-27 -24 -41 -49.5t-20 -44.5zM741 120q7 10 16 18.5t21 14.5l-24 197q-16 -13 -36.5 -19t-41.5 -6h-2h-2q-19 0 -39 3.5t-35 13.5q3 -16 3 -33.5t-3 -32.5q-3 -25 -12 -45.5t-25 -32.5z" />
    <glyph glyph-name="uniE61B" unicode="&#xe61b;" 
d="M492 443q-50 0 -94 19t-76.5 51.5t-51.5 76.5t-19 94q0 51 19 96t52 78t78 52t97 19q50 0 93.5 -19t76.5 -52t51.5 -78t18.5 -96q0 -50 -19.5 -94t-53 -76.5t-78.5 -51.5t-94 -19zM492 806q-50 0 -84 -35.5t-34 -81.5q0 -50 34 -84t84 -34q49 0 83 34t34 84t-34 83.5
t-83 33.5zM768 346q-23 -23 -48.5 -41t-48.5 -26q-27 -11 -57 -16.5t-61 -9.5q8 -7 9.5 -9t5.5 -6q43 -42 85 -84.5t84 -84.5q12 -15 15 -33t-4 -33q-8 -20 -25.5 -30.5t-36.5 -10.5q-11 0 -22 6t-19 14q-34 35 -65.5 66t-62.5 62q-11 12 -17 10t-14 -10q-30 -31 -63.5 -64
t-64.5 -64q-15 -11 -33 -14.5t-33 4.5q-16 8 -26 25t-10 36q0 12 6.5 23t13.5 18q43 39 82.5 80.5t81.5 83.5q0 4 3.5 8t7.5 7q-58 8 -108 23t-92 49q-4 4 -10.5 8t-10.5 7q-19 20 -22 39.5t12 42.5q16 16 35 21.5t42 -5.5q4 -4 7.5 -5.5t7.5 -4.5q41 -29 87.5 -43.5
t94.5 -15t95 13t87 39.5q8 8 16 12.5t20 8.5q19 4 34.5 -3t26.5 -23q12 -19 11 -37.5t-16 -33.5z" />
    <glyph glyph-name="uniE61C" unicode="&#xe61c;" 
d="M865 627q6 -42 3.5 -84.5t-12.5 -82.5t-27 -75.5t-41 -64.5q-34 -38 -79.5 -60t-99.5 -22h-10h-10q-31 0 -52 10.5t-40 25.5q-4 4 -10.5 7.5t-10.5 7.5q-9 -44 -19.5 -85.5t-25.5 -78.5t-36 -68t-52 -54l-10 -6v11q-8 50 -7 95t7.5 87.5t16 82t19.5 78.5q7 27 14 53.5
t11 53.5q-19 35 -18.5 83t23.5 86q20 35 49 46.5t64 -0.5q50 -19 45 -69.5t-25 -104.5q-11 -38 -20.5 -76.5t5.5 -61.5q8 -8 19.5 -15t26.5 -11q46 -7 86 19t63 84q13 32 20 71.5t5.5 78.5t-12.5 73.5t-34 57.5q-27 31 -64 46.5t-79 15.5q-54 0 -107 -25t-88 -67
q-34 -35 -46.5 -81.5t-4.5 -92.5q0 -16 6 -25.5t9 -21.5q12 -19 17.5 -41.5t-17.5 -60.5v-5h-5q-65 15 -95.5 65.5t-27.5 139.5q2 50 23 100.5t59 92.5t92 71.5t123 37.5q12 4 26 4.5t26 0.5q65 0 121.5 -18.5t99.5 -51t71 -77.5t35 -99z" />
    <glyph glyph-name="uniE61D" unicode="&#xe61d;" 
d="M169 576q98 0 184.5 -37.5t151.5 -102.5t102.5 -151.5t37.5 -184.5h-138q0 69 -25.5 131.5t-71.5 108.5q-50 47 -111 72.5t-130 25.5v138zM266 294q39 0 66.5 -29t31.5 -68q0 -42 -29.5 -69.5t-68.5 -27.5q-42 0 -69.5 29.5t-27.5 67.5q0 42 29.5 69.5t67.5 27.5z
M169 822q150 0 281.5 -57t229.5 -154.5t154.5 -229t56.5 -281.5h-138q0 121 -46 227t-125 185.5t-185.5 125.5t-227.5 46v138z" />
    <glyph glyph-name="dotaccent" unicode="&#x2d9;" 
d="M952 755v-71h-112v-113h-72v113h-118v71h118v118h72v-118h112zM563 806h-46q27 -19 41.5 -54.5t14.5 -78.5q0 -38 -19 -72.5t-57 -65.5q-23 -19 -34.5 -32.5t-11.5 -28.5q0 -20 17.5 -39.5t48.5 -42.5q58 -43 83 -84.5t25 -95.5q0 -36 -17.5 -72t-53 -64t-89.5 -45.5
t-127 -17.5q-60 0 -109.5 12.5t-85.5 35.5t-56 55t-20 71q0 27 9 60t39 62t85.5 50t147.5 22q-19 23 -23 49.5t8 53.5q-96 4 -153 55t-57 139q0 39 14.5 75.5t44.5 65.5t75 46.5t107 17.5h266zM527 202q0 50 -44.5 94t-129.5 44v0q-73 0 -126 -39.5t-53 -93.5q0 -57 50 -95
t119 -38q85 0 134.5 33.5t49.5 94.5zM435 561q16 19 23 46.5t3 65.5q-12 66 -49.5 112.5t-83.5 46.5h-5q-16 0 -33 -7.5t-29 -23.5q-19 -23 -26 -53t1 -64q7 -62 45 -105.5t88 -43.5h5q19 0 34.5 7t26.5 19z" />
    <glyph glyph-name="uniE704" unicode="&#xe704;" horiz-adv-x="768" 
d="M595 0h-84q-15 42 -51 63t-76.5 21t-76 -21t-50.5 -63h-85l158 447q5 13 1.5 26t-12.5 22q-27 25 -27 64q0 38 26 64.5t64 26.5t64.5 -26.5t26.5 -64.5q0 -18 -7 -34t-19 -29q-9 -9 -12 -21.5t2 -25.5zM353 273h61l-30 87zM457 152l-18 51h-111l-17 -51h146zM504 456
q20 20 31.5 46.5t11.5 56.5q0 31 -11.5 57.5t-31.5 46.5l55 54q30 -30 47.5 -70.5t17.5 -87.5q0 -46 -17.5 -86.5t-47.5 -70.5zM209 402q-31 30 -48.5 70.5t-17.5 86.5q0 47 17.5 87.5t48.5 70.5l54 -54q-20 -20 -31.5 -46.5t-11.5 -57.5q0 -30 11.5 -56.5t31.5 -46.5z
M660 818q50 -50 79 -116.5t29 -142.5t-29 -142.5t-79 -116.5l-54 54q40 39 63 92t23 113q0 61 -23 113.5t-63 92.5zM161 765q-40 -40 -62.5 -92.5t-22.5 -113.5q0 -60 22.5 -113t62.5 -92l-54 -54q-50 50 -78.5 116.5t-28.5 142.5t28.5 142.5t78.5 116.5z" />
    <glyph glyph-name="uniE700" unicode="&#xe700;" 
d="M1017 319v-57v-35q0 -26 -18.5 -44.5t-44.5 -18.5h-552l-196 -157q-8 -7 -20 -7q-7 0 -13 3q-18 8 -18 28l-2 133h-92q-26 0 -44.5 18.5t-18.5 44.5v559q0 26 18.5 44.5t44.5 18.5h66h42q13 0 22.5 -9t9.5 -22q0 -14 -9.5 -23t-22.5 -9h-27h-81v-559h124q13 0 22 -9
t9 -22l1 -100l154 124q10 7 20 7h563v107v42q0 13 9 22t23 9q13 0 22 -9t9 -22v-57z" />
    <glyph glyph-name="uniE705" unicode="&#xe705;" horiz-adv-x="751" 
d="M529 137l116 -137h-89l-117 137h90v0v0zM341 0h69v137h-69v-137v0v0zM580 615h-68v-273h68v273v0zM105 0h90l117 137h-90l-117 -137v0zM273 376h-68v-34h68v34v0zM375 444h-68v-102h68v102v0zM478 512h-68v-170h68v170v0zM751 717h-34v-512h-683v512h-34v103h751v-103v0
v0zM649 717h-547v-443h547v443v0v0z" />
    <glyph glyph-name="uniE706" unicode="&#xe706;" horiz-adv-x="820" 
d="M683 405q-11 36 -38.5 61t-65.5 33q22 8 43.5 3t37 -18.5t22.5 -34.5t1 -44zM773 290q-20 -26 -51 -46l39 -39q12 -10 25 -10q12 0 24 10q10 11 10 24.5t-10 24.5zM606 244q-29 0 -57 9t-51.5 27.5t-41 45.5t-26.5 63q-5 22 -8.5 28.5t-11.5 7.5q-8 -1 -11.5 -7.5
t-8.5 -28.5q-9 -36 -26.5 -63t-41 -45.5t-51.5 -27.5t-57 -9q-62 0 -110 36.5t-64 95.5q-17 3 -28.5 16.5t-11.5 31.5t11.5 31.5t28.5 17.5q8 29 24.5 53t39.5 41.5t51 27.5t59 10q57 0 103 -33t66 -85q7 2 13.5 3t13.5 2q7 -1 13.5 -2t13.5 -3q10 26 27 48t39 37.5t48 24
t55 8.5q31 0 59 -10t51 -27.5t39.5 -41.5t24.5 -53q17 -4 28.5 -17.5t11.5 -31.5t-11.5 -31.5t-28.5 -16.5q-16 -59 -64 -95.5t-110 -36.5zM327 424q0 24 -9 44.5t-24.5 36t-36 24.5t-43.5 9q-24 0 -44.5 -9t-36 -24.5t-24.5 -36t-9 -44.5q0 -23 9 -43.5t24.5 -36t36 -24.5
t44.5 -9q23 0 43.5 9t36 24.5t24.5 36t9 43.5zM720 424q0 24 -9 44.5t-24.5 36t-36 24.5t-44.5 9q-23 0 -44 -9t-36.5 -24.5t-24.5 -36t-9 -44.5q0 -23 9 -43.5t24.5 -36t36.5 -24.5t44 -9q24 0 44.5 9t36 24.5t24.5 36t9 43.5zM47 290l-37 -36q-10 -11 -10 -24.5t10 -24.5
q12 -10 24 -10q13 0 25 10l39 39q-31 20 -51 46zM137 405q11 36 38.5 61t65.5 33q-23 8 -44 3t-36.5 -18.5t-22.5 -34.5t-1 -44z" />
    <glyph glyph-name="uniE707" unicode="&#xe707;" horiz-adv-x="819" 
d="M523 422q-24 -9 -34 -33t1 -48l18 -39l-53 -54l-40 19q-23 11 -47 1q-26 -11 -33 -35l-15 -41h-76l-15 41q-4 12 -12.5 21t-19.5 14h-1q-24 10 -47 -1l-40 -19l-53 54l18 39q11 24 2 48q-11 24 -35 33l-41 14v76l41 15q24 7 35 33q9 23 -2 48l-18 39l53 54l40 -19
q25 -11 47 -1h1q24 10 32 34l15 41h76l15 -41q8 -24 32 -34t48 1l40 19l53 -54l-18 -39q-11 -26 -1 -48q10 -25 34 -33l41 -15v-76zM282 371q21 0 40 8t33.5 22t22.5 33t8 40t-8 40t-22.5 33.5t-33.5 22.5t-40 8t-40 -8t-33 -22.5t-22 -33.5t-8 -40t8 -40t22 -33t33 -22
t40 -8zM797 205q-14 -5 -18 -17q-5 -12 0 -26l10 -21l-28 -28l-21 10q-14 5 -25 0q-13 -4 -18 -18l-8 -22h-40l-8 22q-5 14 -17 18q-12 5 -26 0l-21 -10l-28 28l10 21q5 14 0 26q-4 12 -18 17l-22 8v40l22 8q14 5 18 17q5 12 0 26l-10 21l28 28l21 -10q14 -5 26 0
q12 4 17 18l8 22h40l8 -22q5 -14 18 -18q11 -5 25 0l21 10l28 -28l-10 -21q-5 -14 0 -26q4 -12 18 -17l22 -8v-40zM669 178q23 0 39 16t16 39t-16 39t-39 16t-39 -16t-16 -39t16 -39t39 -16z" />
    <glyph glyph-name="uniE708" unicode="&#xe708;" horiz-adv-x="823" 
d="M718 825q11 -37 38.5 -64.5t63.5 -38.5q-36 -11 -63.5 -38t-38.5 -64q-11 37 -38 64t-64 38q37 11 64 38.5t38 64.5zM70 756q8 -24 25.5 -42t42.5 -26q-52 -16 -68 -68q-8 25 -26 42.5t-43 25.5q25 8 43 26t26 42zM701 210q10 -31 32.5 -53.5t52.5 -31.5
q-30 -10 -52.5 -32t-32.5 -53q-9 31 -31.5 53t-53.5 32q31 9 53.5 31.5t31.5 53.5zM377 859q8 -25 25.5 -43t42.5 -25q-25 -8 -42.5 -26t-25.5 -43q-8 25 -26 43t-43 26q25 7 43 25t26 43zM104 244q11 -37 38 -64t64 -38q-37 -11 -64 -38t-38 -64q-11 37 -38.5 64t-64.5 38
q37 11 64.5 38t38.5 64zM752 460l-341 -420l-341 422l170 192h344zM168 449l199 -246l-104 246h-95zM300 449l111 -263l111 263h-222zM506 483l-95 96l-95 -96h190zM454 201l202 248h-97zM553 586h-101l103 -103h86zM180 483h87l103 103h-99z" />
    <glyph glyph-name="uniE710" unicode="&#xe710;" horiz-adv-x="819" 
d="M674 570q30 0 56.5 -11.5t46 -31t31 -46t11.5 -56.5v-88q0 -30 -11.5 -56.5t-31 -46t-46 -31t-56.5 -11.5h-53q-39 -44 -94 -69.5t-118 -25.5t-117 25.5t-93 69.5h-54q-30 0 -56.5 11.5t-46 31t-31 46t-11.5 56.5v88q0 30 11.5 56.5t31 46t46 31t56.5 11.5h54
q39 44 93 69.5t117 25.5t118 -25.5t94 -69.5h53zM288 478h-51l-16 -114l-19 113h-46l-20 -113l-15 113h-52l44 -194h45l20 120l20 -120h47zM333 489q-11 0 -19 -7t-8 -18t8 -18t19 -7t19 7t8 18t-8 18t-19 7zM309 284h47v140h-47v-140zM788 425q0 24 -9 44.5t-24.5 35.5
t-36 24t-44.5 9h-151q-24 0 -44.5 -9t-36 -24t-24.5 -35.5t-9 -44.5v-88q0 -48 -14.5 -80.5t-47.5 -32.5h327q24 0 44.5 9t36 24t24.5 35.5t9 44.5v88zM674 424h46v-140h-46v140zM725 464q0 -11 -8 -18t-19 -7q-12 0 -20 7t-8 18t8 18t20 7q11 0 19 -7t8 -18zM490 477h155
v-45h-105v-44h94v-45h-94v-58h-50v192z" />
    <glyph glyph-name="uniE713" unicode="&#xe713;" horiz-adv-x="728" 
d="M1 390q1 72 32 137t82.5 113.5t117.5 76.5t138 26q69 3 132 -23.5t116 -68.5q-44 -51 -94 -97q-32 22 -69 35t-75 15.5t-75.5 -8t-69.5 -35.5q-45 -31 -68.5 -80t-25 -102.5t19 -103.5t64.5 -84q28 -26 63.5 -39t72.5 -14.5t73.5 8.5t67 30t52 50.5t29.5 69.5
q-54 1 -106.5 0.5t-105.5 1.5q-1 32 -1 63.5v63.5h355q3 -38 1 -76t-9.5 -75t-21.5 -71.5t-37 -65.5q-35 -49 -85 -80.5t-107 -45.5t-116.5 -10.5t-113.5 24.5q-55 21 -100.5 58.5t-77 86t-47.5 105t-11 115.5z" />
    <glyph glyph-name="uniE714" unicode="&#xe714;" horiz-adv-x="1170" 
d="M1 390q1 72 32 137t82.5 113.5t117.5 76.5t138 26q69 3 132 -23.5t116 -68.5q-44 -51 -94 -97q-32 22 -69 35t-75 15.5t-75.5 -8t-69.5 -35.5q-45 -31 -68.5 -80t-25 -102.5t19 -103.5t64.5 -84q28 -26 63.5 -39t72.5 -14.5t73.5 8.5t67 30t52 50.5t29.5 69.5
q-54 1 -106.5 0.5t-105.5 1.5q-1 32 -1 63.5v63.5h355q3 -38 1 -76t-9.5 -75t-21.5 -71.5t-37 -65.5q-35 -49 -85 -80.5t-107 -45.5t-116.5 -10.5t-113.5 24.5q-55 21 -100.5 58.5t-77 86t-47.5 105t-11 115.5zM1063 531v-106h107v-106h-53.5t-53.5 -1v-106h-106v53.5
t-1 52.5q-26 1 -52.5 1h-53.5v106h106q0 27 0.5 53.5t0.5 52.5h106z" />
    <glyph glyph-name="uniE61E.493" 
d="M384 960q132 0 248.5 -50.5t203.5 -137.5t137.5 -203.5t50.5 -248.5h-96q0 27 -3 54.5t-8 53.5q-5 27 -13 52.5t-19 50.5q-10 25 -22.5 48t-27.5 44q-14 22 -31 42.5t-36 38.5q-18 19 -38.5 36t-42.5 31q-21 15 -44 27.5t-48 22.5q-25 11 -50.5 19t-52.5 13
q-26 5 -53.5 8t-54.5 3v96zM384 768q93 0 174.5 -35.5t142.5 -95.5q60 -61 95.5 -142.5t35.5 -174.5h-96q0 35 -7 69t-20 66q-13 31 -32 60t-44 54t-54 44t-60 32q-32 13 -66 20t-69 7v96zM640 416l-64 -64l-64 -224l-416 -192l-26 25l233 233q2 -1 4 -1t4 -1h4.5h4.5
q13 0 24.5 5t20.5 13q9 9 14 20.5t5 25.5q0 13 -5 24.5t-14 20.5t-20.5 14t-24.5 5q-14 0 -25.5 -5t-20.5 -14q-8 -9 -13 -20.5t-5 -24.5v-4.5v-4.5q1 -2 1 -4t1 -4l-233 -233l-25 26l192 416l224 64l64 64z" />
    <glyph glyph-name="uniE61E.495" 
d="M986 922q19 -18 28.5 -42t9.5 -48q0 -25 -9.5 -48.5t-28.5 -42.5l-172 -172l122 -121l-136 -136l-107 106l-472 -472q-2 -2 -5 -4t-7 -4q-3 -1 -6.5 -1.5t-6.5 -0.5h-2.5h-1.5h-160q-7 0 -13 2.5t-10 6.5t-6.5 10t-2.5 13v160v0v8t2 7q1 4 3 7.5t5 6.5l472 472l-106 107
l136 136l121 -122l172 172q19 19 42.5 28.5t48.5 9.5q24 0 48 -9.5t42 -28.5zM642 469l-109 109l-469 -469v-109h109z" />
    <glyph glyph-name="uniE61E.496" 
d="M864 487q16 -43 24 -87t7 -88t-11.5 -87t-31.5 -84q-25 -47 -61.5 -85t-80.5 -64q-44 -27 -94.5 -41.5t-103.5 -14.5t-103.5 14.5t-95.5 41.5q-44 26 -80.5 64t-60.5 85q-22 41 -32.5 84t-10.5 87q-1 44 7 88t23 87q25 68 62.5 133t83.5 125t98.5 114t108.5 101
q55 -47 108 -101t99 -114t83.5 -125t61.5 -133zM739 201q17 32 23 65t5 65q-1 31 -8 60t-15 52q-4 11 -8 21.5t-9 20.5q-4 11 -9.5 21.5t-10.5 20.5q6 -26 9.5 -55.5t1.5 -60.5t-10 -63.5t-25 -64.5q-20 -39 -50.5 -70.5t-67.5 -54.5q-37 -22 -79 -34t-86 -12h-10h-10
q-5 1 -10 1.5t-10 0.5q16 -12 34 -21t37 -16q20 -6 40 -9.5t41 -3.5q35 0 68.5 9.5t63.5 27.5t54 43.5t41 56.5z" />
    <glyph glyph-name="uniE747" unicode="&#xe747;" horiz-adv-x="885" 
d="M871 0h-857q-14 0 -14 14v161q0 47 26 85.5t71 55.5l203 79q5 3 10 0q6 -2 8 -8l60 -162l19 55l-17 42q-3 5 1 13q4 6 12 6h99q7 0 12 -6q4 -8 1 -13l-17 -42l19 -55l60 162q2 6 8 8q5 3 11 0l202 -79q45 -17 71 -55.5t26 -85.5v-161q0 -14 -14 -14zM28 28h829v147
q0 38 -21.5 69.5t-57.5 45.5l-189 74l-69 -185q-3 -9 -13 -9t-13 9l-35 97q-2 6 1 10l11 28h-57l12 -28q1 -4 0 -10l-35 -97q-3 -9 -13 -9t-13 9l-68 185l-190 -74q-36 -14 -57.5 -45.5t-21.5 -69.5v-147zM763 61h-158q-14 0 -14 14v95q0 14 14 14h158q14 0 14 -14v-95
q0 -14 -14 -14zM619 89h130v67h-130v-67zM443 399q-34 0 -64 12q-24 10 -38 22q-10 9 -20 23t-19 28t-16 27t-11 21q-6 0 -15.5 2.5t-19.5 10t-19 21t-15 35.5q-12 44 5 70q8 13 21 18q-1 5 -0.5 13t1.5 17q-4 6 -9 17t-6.5 27t2.5 36.5t18 44.5h1q18 32 39.5 41.5t38.5 9.5
q10 0 15 -1q4 6 11.5 13.5t21 14t34 11t50.5 4.5h4q40 0 70 -11.5t50 -23.5q18 -9 33 -22t26 -27t18 -27t10 -23q5 -18 5 -39q0 -26 -4.5 -47t-6.5 -27v-1q5 -2 10 -6.5t10 -11.5q17 -26 5 -70q-6 -22 -15 -35.5t-19 -21t-19.5 -10t-15.5 -2.5q-4 -8 -11 -21t-16 -27
t-19 -28t-20 -23q-14 -12 -38 -22q-30 -12 -63 -12zM284 560q10 0 13 -8l6 -12t15 -27.5t20 -32t22 -26.5q6 -5 13 -9.5t17 -8.5q13 -5 26 -7.5t27 -2.5t27 2.5t25 7.5q19 7 30 18q11 10 22 26.5t20 32t15 27.5l6 12q5 10 16 8h3q4 0 10.5 1.5t12.5 6.5t12 14.5t10 25.5
q8 33 -2 47q-4 7 -8.5 9t-5.5 2q-13 2 -11 14v12q0 3 -1.5 9.5t-6.5 11.5t-33.5 10.5t-60.5 11.5q-13 2 -28 5t-31 7q-22 3 -36 10q-27 10 -45.5 22t-29.5 23q-5 -11 -11 -23.5t-16 -22.5q-17 -19 -35.5 -29t-29.5 -14q-2 -15 -1.5 -23.5t0.5 -9.5q2 -12 -12 -14
q0 -1 -4.5 -2.5t-8.5 -8.5q-10 -14 -2 -47q4 -16 10 -25.5t12 -14.5t12 -6.5t11 -1.5h3h3zM346 844q7 0 12 -6q8 -11 19 -21q10 -9 25 -18t36 -17h1q14 -5 30 -8h1q16 -4 30.5 -6.5t28.5 -5.5q48 -9 72 -14.5t33 -12.5q3 13 3 29q0 18 -4 30v2q0 1 -0.5 1.5t-0.5 1.5
q-6 17 -25 41t-46 37l-2 1q-17 11 -44 21t-62 11h-4h-6q-30 -1 -47.5 -6t-27 -11.5t-12 -11.5t-2.5 -6v-1q-2 -4 -3 -5q-2 -3 -3 -3q-3 -3 -7 -3q-3 0 -5 1q-1 0 -2 1q-1 0 -5 1t-12 1q-32 0 -54 -37q-10 -17 -13.5 -31t-3.5 -25.5t2 -20t5 -13.5q10 4 24 12.5t28 22.5
q12 13 18.5 31.5t8.5 26.5q3 10 12 11h2z" />
    <glyph glyph-name="uniE61E.013" 
d="M64 832v0v0v-768v0v0h896v0v0v768v0v0h-896zM960 896q13 0 24.5 -5t20.5 -14t14 -20.5t5 -24.5v-768q0 -13 -5 -25t-14 -20q-9 -9 -20.5 -14t-24.5 -5h-896q-13 0 -25 5t-20 14q-9 8 -14 20t-5 25v768q0 13 5 24.5t14 20.5q8 9 20 14t25 5h896zM832 672q0 -20 -7.5 -37.5
t-20.5 -30.5t-30.5 -20.5t-37.5 -7.5t-37.5 7.5t-30.5 20.5t-20.5 30.5t-7.5 37.5t7.5 37.5t20.5 30.5t30.5 20.5t37.5 7.5t37.5 -7.5t30.5 -20.5t20.5 -30.5t7.5 -37.5zM896 128h-768v128l224 384l256 -320h64l224 192v-384z" />
    <glyph glyph-name="uniE61E.014" horiz-adv-x="1152" 
d="M1088 832q13 0 24.5 -5t20.5 -14t14 -20.5t5 -24.5v-768q0 -13 -5 -25t-14 -20q-9 -9 -20.5 -14t-24.5 -5h-896q-13 0 -25 5t-20 14q-9 8 -14 20t-5 25v64h-64q-13 0 -25 5t-20 14q-9 8 -14 20t-5 25v768q0 13 5 24.5t14 20.5q8 9 20 14t25 5h896q13 0 24.5 -5t20.5 -14
t14 -20.5t5 -24.5v-64h64zM128 768q0 13 5 24.5t14 20.5q8 9 20 14t25 5h768v64v0v0h-896v0v0v-768v0v0h64v640zM1088 768v0v0h-896v0v0v-768v0v0h896v0v0v768zM960 608q0 -20 -7.5 -37.5t-20.5 -30.5t-30.5 -20.5t-37.5 -7.5t-37.5 7.5t-30.5 20.5t-20.5 30.5t-7.5 37.5
t7.5 37.5t20.5 30.5t30.5 20.5t37.5 7.5t37.5 -7.5t30.5 -20.5t20.5 -30.5t7.5 -37.5zM1024 64h-768v128l224 384l256 -320h64l224 192v-384z" />
    <glyph glyph-name="uniE61E.015" 
d="M304 352q0 43 16 81t45 66q28 28 66 44.5t81 16.5t81 -16.5t66 -44.5t44.5 -66t16.5 -81t-16.5 -81t-44.5 -66q-28 -29 -66 -45t-81 -16t-81 16t-66 45q-29 28 -45 66t-16 81zM960 704q13 0 24.5 -5t20.5 -14t14 -20.5t5 -24.5v-576q0 -13 -5 -25t-14 -20
q-9 -9 -20.5 -14t-24.5 -5h-896q-13 0 -25 5t-20 14q-9 8 -14 20t-5 25v576q0 13 5 24.5t14 20.5q8 9 20 14t25 5h224q6 24 12.5 47t17.5 41q10 18 26 29t40 11h256q24 0 39.5 -11t26.5 -29q10 -18 17 -41t13 -47h224zM512 68q59 0 110.5 22t90.5 61q38 38 60.5 90t22.5 111
t-22.5 110.5t-60.5 90.5q-39 38 -90.5 60.5t-110.5 22.5t-111 -22.5t-90 -60.5q-39 -39 -61 -90.5t-22 -110.5t22 -111t61 -90q38 -39 90 -61t111 -22zM960 576h-128v-64h128v64z" />
    <glyph glyph-name="uniE61E.016" 
d="M288 384q6 0 12 -2.5t10 -7.5q5 -4 7.5 -10t2.5 -12v-384q0 -7 -2.5 -13t-7.5 -10q-4 -4 -10 -6.5t-12 -2.5h-64v448h64zM800 384v-448h-64q-7 0 -13 2.5t-10 6.5t-6.5 10t-2.5 13v384q0 6 2.5 12t6.5 10q4 5 10 7.5t13 2.5h64zM1024 448q0 -23 -2 -45.5t-6 -44.5
t-9.5 -43.5t-13.5 -41.5q7 -13 13 -26t10 -28q4 -14 6 -29t2 -30q0 -43 -15 -80.5t-41 -67.5q-25 -29 -60.5 -48.5t-75.5 -25.5v443q12 -1 23.5 -4t22.5 -7t21.5 -9.5t20.5 -11.5q2 10 3.5 20t2.5 21q1 10 1.5 20.5t0.5 21.5q0 86 -33 161.5t-89 132.5q-57 56 -132.5 89
t-161.5 33t-162 -33t-132 -89q-57 -57 -89.5 -132.5t-32.5 -161.5q0 -11 0.5 -21.5t1.5 -20.5q1 -11 2.5 -21t3.5 -20q10 6 20.5 11.5t21.5 9.5t22.5 7t23.5 4v-443q-41 6 -76 25.5t-61 48.5q-26 30 -40.5 67.5t-14.5 80.5q0 15 2 30t6 29q4 15 9.5 28t12.5 26
q-7 20 -12.5 41.5t-9.5 43.5t-6 44.5t-2 45.5q0 106 40 199t110 163q69 69 162.5 109.5t199.5 40.5t199 -40.5t163 -109.5q69 -70 109.5 -163t40.5 -199z" />
    <glyph glyph-name="uniE61E.017" 
d="M960 960h64v-736q0 -33 -17.5 -62.5t-48.5 -50.5q-30 -22 -71 -34.5t-87 -12.5q-47 0 -87.5 12.5t-71.5 34.5q-30 21 -47.5 50.5t-17.5 62.5t17.5 62t47.5 51q31 22 71.5 34.5t87.5 12.5q23 0 45.5 -3.5t42.5 -9.5t38.5 -15t33.5 -20v368l-512 -114v-494
q0 -33 -17.5 -62.5t-48.5 -50.5q-30 -22 -71 -34.5t-87 -12.5q-47 0 -87.5 12.5t-71.5 34.5q-30 21 -47.5 50.5t-17.5 62.5t17.5 62t47.5 51q31 22 71.5 34.5t87.5 12.5q23 0 45.5 -3.5t42.5 -9.5t38.5 -15t33.5 -20v624z" />
    <glyph glyph-name="uniE61E.018" 
d="M981 800q10 -41 18 -83.5t14 -86.5q5 -44 8 -89.5t3 -92.5t-3 -93t-8 -90q-6 -44 -14 -86.5t-18 -82.5q-54 -8 -110.5 -14t-115.5 -10t-120 -6t-123 -2q-63 0 -124 2t-120 6q-58 4 -115 10t-110 14q-11 40 -19 82.5t-13 86.5q-6 44 -8.5 90t-2.5 93t2.5 92.5t8.5 89.5
q5 44 13 86.5t19 83.5q53 7 110 13t115 10q59 5 120 7t124 2q62 0 123 -2t120 -7q59 -4 115.5 -10t110.5 -13zM704 448l-320 192v-384z" />
    <glyph glyph-name="uniE61E.019" 
d="M1024 832v-768h-1024v768h1024zM192 256h-128v-128h128v128zM192 512h-128v-128h128v128zM192 768h-128v-128h128v128zM768 768h-512v-640h512v640zM960 256h-128v-128h128v128zM960 512h-128v-128h128v128zM960 768h-128v-128h128v128zM640 448l-256 -192v384z" />
    <glyph glyph-name="uniE61E.020" 
d="M384 672q0 33 12.5 62t34.5 51q21 22 50.5 34.5t62.5 12.5t62 -12.5t51 -34.5t34.5 -51t12.5 -62t-12.5 -62.5t-34.5 -50.5q-22 -22 -51 -34.5t-62 -12.5t-62.5 12.5t-50.5 34.5q-22 21 -34.5 50.5t-12.5 62.5zM0 672q0 33 12.5 62t34.5 51q21 22 50.5 34.5t62.5 12.5
t62 -12.5t51 -34.5t34.5 -51t12.5 -62t-12.5 -62.5t-34.5 -50.5q-22 -22 -51 -34.5t-62 -12.5t-62.5 12.5t-50.5 34.5q-22 21 -34.5 50.5t-12.5 62.5zM768 352v96q0 13 -5 24.5t-14 20.5t-20.5 14t-24.5 5h-640q-13 0 -25 -5t-20 -14q-9 -9 -14 -20.5t-5 -24.5v-320
q0 -13 5 -25t14 -20q8 -9 20 -14t25 -5h640q13 0 24.5 5t20.5 14q9 8 14 20t5 25v96l256 -160v448zM640 192h-512v192h512v-192z" />
    <glyph glyph-name="uniE61E.021" 
d="M864 768q33 0 62 -13t51 -34q22 -22 34.5 -51t12.5 -62v-512q0 -33 -13 -62.5t-34 -50.5q-22 -22 -51 -34.5t-62 -12.5h-512q-33 0 -62.5 12.5t-50.5 34.5q-22 22 -34.5 51t-12.5 62v512q0 33 12.5 62t34.5 51t51 34.5t62 12.5h512zM416 64q20 0 37.5 7.5t30.5 20.5
t20.5 30.5t7.5 37.5t-7.5 37.5t-20.5 30.5t-30.5 20.5t-37.5 7.5t-37.5 -7.5t-30.5 -20.5t-20.5 -30.5t-7.5 -37.5t7.5 -37.5t20.5 -30.5t30.5 -20.5t37.5 -7.5zM416 448q20 0 37.5 7.5t30.5 20.5t20.5 30.5t7.5 37.5t-7.5 37.5t-20.5 30.5t-30.5 20.5t-37.5 7.5t-37.5 -7.5
t-30.5 -20.5t-20.5 -30.5t-7.5 -37.5t7.5 -37.5t20.5 -30.5t30.5 -20.5t37.5 -7.5zM608 256q20 0 37.5 7.5t30.5 20.5t20.5 30.5t7.5 37.5t-7.5 37.5t-20.5 30.5t-30.5 20.5t-37.5 7.5t-37.5 -7.5t-30.5 -20.5t-20.5 -30.5t-7.5 -37.5t7.5 -37.5t20.5 -30.5t30.5 -20.5
t37.5 -7.5zM800 64q20 0 37.5 7.5t30.5 20.5t20.5 30.5t7.5 37.5t-7.5 37.5t-20.5 30.5t-30.5 20.5t-37.5 7.5t-37.5 -7.5t-30.5 -20.5t-20.5 -30.5t-7.5 -37.5t7.5 -37.5t20.5 -30.5t30.5 -20.5t37.5 -7.5zM800 448q20 0 37.5 7.5t30.5 20.5t20.5 30.5t7.5 37.5t-7.5 37.5
t-20.5 30.5t-30.5 20.5t-37.5 7.5t-37.5 -7.5t-30.5 -20.5t-20.5 -30.5t-7.5 -37.5t7.5 -37.5t20.5 -30.5t30.5 -20.5t37.5 -7.5zM192 832q-13 0 -25 -5t-20 -14q-9 -9 -14 -20.5t-5 -24.5v-637q-28 6 -51 20t-41 35q-17 21 -26.5 47t-9.5 55v512q0 33 12.5 62t34.5 51
t51 34.5t62 12.5h512q29 0 55 -10t46 -27q21 -17 35.5 -40.5t20.5 -50.5h-637z" />
    <glyph glyph-name="uniE61E.022" 
d="M640 448l324 -333q-35 -41 -78 -74.5t-93 -56.5q-49 -23 -104 -35.5t-113 -12.5q-106 0 -199.5 40t-162.5 110q-70 69 -110 162.5t-40 199.5t40 199t110 163q69 69 162.5 109.5t199.5 40.5q58 0 113 -12.5t104 -36.5q50 -23 93 -56t78 -74zM704 839q-15 0 -28 -5.5
t-23 -15.5q-9 -9 -15 -22t-6 -28t6 -28t15 -23q10 -9 23 -15t28 -6t28 6t22 15q10 10 15.5 23t5.5 28t-5.5 28t-15.5 22q-9 10 -22 15.5t-28 5.5z" />
    <glyph glyph-name="uniE61E.023" 
d="M817 612q124 -92 138.5 -192.5t-38.5 -170.5q-53 -69 -152 -88t-201 51q6 -43 20 -81t33 -68q19 -31 41.5 -53.5t45.5 -36.5v-37h-384v37q23 14 45 36.5t41 53.5q19 30 33 68t21 81q-102 -70 -201 -51t-152 88q-53 70 -39 170.5t138 192.5q73 54 123.5 102.5t85.5 91.5
q34 44 57 82t40 72v0v0v0v0q17 -34 39.5 -72t57.5 -82q35 -43 85.5 -91.5t122.5 -102.5z" />
    <glyph glyph-name="uniE61E.024" 
d="M787 567q42 0 80 -16.5t66 -44.5q28 -29 44.5 -67t16.5 -81q0 -44 -16.5 -82t-44.5 -66q-28 -29 -66 -45.5t-80 -16.5q-23 0 -43.5 4.5t-39.5 13.5t-36 21t-31 27q-7 6 -15.5 13.5t-18.5 15.5q-10 7 -21.5 14.5t-23.5 14.5q2 -55 14.5 -102.5t32.5 -85.5
q21 -39 46.5 -66.5t52.5 -44.5v-37h-384v37q27 17 52.5 44.5t45.5 66.5q20 38 33 85.5t14 102.5q-12 -7 -23.5 -14.5t-21.5 -14.5q-10 -8 -18.5 -15.5t-14.5 -13.5q-14 -15 -31 -27t-36 -21t-40 -13.5t-43 -4.5q-43 0 -80.5 16.5t-66.5 45.5q-28 28 -44 66t-16 82
q0 43 16 81t44 67q29 28 66.5 44.5t80.5 16.5q22 0 43 -4.5t40 -12.5q19 -9 36 -21t31 -27q6 -6 14 -13t17 -14q10 -7 20.5 -14t22.5 -14q-6 21 -16 43t-23 42q-13 21 -26 38.5t-25 28.5q-15 14 -27 31t-20 37q-8 19 -12.5 40t-4.5 43q0 44 16 81.5t44 66.5q28 28 65 44.5
t80 17.5q42 -1 79.5 -17.5t65.5 -44.5q27 -29 43.5 -66.5t16.5 -81.5q0 -22 -4.5 -43t-13.5 -40q-8 -20 -20 -37t-26 -31q-12 -11 -25.5 -28.5t-26.5 -38.5q-12 -20 -22.5 -42t-15.5 -43l22 14t20 14q10 7 18 14t14 13q14 15 31 27t36 21q19 8 39.5 12.5t43.5 4.5z" />
    <glyph glyph-name="uniE61E.025" 
d="M832 448l-320 -512l-320 512l320 512z" />
    <glyph glyph-name="uniE61E.026" 
d="M1024 530q0 -75 -10.5 -141t-28.5 -116t-41.5 -78.5t-51.5 -29.5h0.5h0.5h-83l-34.5 24t-97.5 57q-63 32 -150.5 66.5t-192.5 56.5q-3 17 -5.5 35.5t-4.5 38.5q-2 21 -3 42.5t-1 44.5q0 24 1 45.5t3 42.5q2 20 4.5 38.5t5.5 35.5q105 22 192.5 56.5t150.5 66.5
q63 33 97.5 57l34.5 24h83h-0.5h-0.5q28 -1 51.5 -30t41.5 -78q18 -50 28.5 -116t10.5 -142zM865 220q3 0 6.5 2t7.5 4q3 2 5.5 5t4.5 5q5 5 9.5 12t9.5 15l8.5 17t8.5 19q8 23 15 50t11 56q5 29 7.5 61t2.5 64q0 33 -2.5 65t-7.5 61q-4 29 -11 56t-15 50q-4 10 -8.5 19
l-8.5 17q-5 8 -9.5 15t-9.5 12q-2 2 -4.5 5t-5.5 5q-4 2 -7.5 3.5t-6.5 1.5q-4 0 -7.5 -1.5t-6.5 -3.5q-4 -2 -6.5 -5t-4.5 -5q-5 -5 -9.5 -12t-9.5 -15q-4 -8 -8 -17t-8 -19q-9 -23 -16 -50t-11 -56q-5 -29 -7 -61t-2 -65q0 -32 2 -64t7 -61q4 -29 11 -56t16 -50
q4 -10 8 -19t8 -17q5 -8 9.5 -15t9.5 -12q2 -2 4.5 -5t6.5 -5q3 -2 6.5 -4t7.5 -2zM252 530q0 -19 0.5 -38t1.5 -38q2 -19 4 -37t5 -36q-18 3 -35 5t-34 3t-34.5 2t-37.5 1h-38.5h-19.5h-8h-1l-55 94v89l55 94h1h8h19.5h38.5q20 0 37.5 1t34.5 2t34 3t35 5q-3 -18 -5 -36
t-4 -37q-1 -19 -1.5 -38t-0.5 -39zM491 88q3 -5 3.5 -11t-1.5 -11q-2 -6 -6 -10t-10 -7l-119 -47q-6 -3 -11.5 -2.5t-10.5 3.5q-5 2 -9 6.5t-5 11.5l-82 321l128 -24zM865 411q-2 0 -3.5 0.5t-2.5 1.5l-2 2l-2 2q-2 2 -3.5 4.5t-3.5 5.5t-3.5 6.5t-3.5 7.5q-3 9 -5.5 19.5
t-4.5 21.5t-2.5 23.5t-0.5 24.5q0 13 0.5 25.5t2.5 23.5t4.5 21.5t5.5 19.5q2 4 3.5 7.5t3.5 6.5t3.5 5.5t3.5 4.5l2 2l2 2t2.5 1.5t3.5 0.5q1 0 2.5 -0.5t2.5 -1.5l2 -2l2 -2q2 -2 4 -4.5t3 -5.5q2 -3 3.5 -6.5t3.5 -7.5q3 -9 5.5 -19.5t4.5 -21.5t3 -23.5t1 -25.5
q0 -12 -1 -24.5t-3 -23.5t-4.5 -21.5t-5.5 -19.5q-2 -4 -3.5 -7.5t-3.5 -6.5q-1 -3 -3 -5.5t-4 -4.5l-2 -2l-2 -2t-2.5 -1.5t-2.5 -0.5z" />
    <glyph glyph-name="uniE61E.027" horiz-adv-x="1280" 
d="M640 384q39 0 77 -8t72 -22q35 -15 65.5 -36t56.5 -47l-90 -90q-18 17 -38.5 31t-43.5 24q-23 9 -48 14.5t-51 5.5q-27 0 -52 -5.5t-48 -14.5q-23 -10 -43.5 -24t-37.5 -31l-91 90q26 26 57 47t65 36q35 14 72.5 22t77.5 8zM187 452q46 46 98 81t110 58q57 24 119 36.5
t126 12.5t125.5 -12.5t119.5 -36.5q57 -23 109.5 -58t97.5 -81l-90 -90q-36 36 -78 64t-88 47t-95.5 29t-100.5 10q-52 0 -101 -10t-95 -29t-88 -47t-78 -64zM989 825q40 -17 77.5 -37.5t73.5 -44.5t69 -51.5t64 -58.5v0l-90 -90q-55 54 -117.5 96t-131.5 71q-69 28 -143 43
t-151 15t-151 -15t-143 -43q-69 -29 -132 -71t-117 -96l-91 90q31 31 64.5 58.5t68.5 51.5q36 24 74 44.5t78 37.5q41 18 84 31t86 22q44 9 88.5 13.5t90.5 4.5q45 0 89.5 -4.5t88.5 -13.5t86.5 -22t84.5 -31zM576 64q0 13 5 24.5t13 20.5q9 9 20.5 14t25.5 5q13 0 24.5 -5
t20.5 -14t14 -20.5t5 -24.5q0 -14 -5 -25.5t-14 -20.5q-9 -8 -20.5 -13t-24.5 -5q-14 0 -25.5 5t-20.5 13q-8 9 -13 20.5t-5 25.5z" />
    <glyph glyph-name="uniE61E.028" 
d="M1024 448q0 -83 -25 -158t-69 -138q-44 -62 -105.5 -109.5t-134.5 -74.5l14 -32h-384l13 32q-73 27 -134 74.5t-105 109.5q-45 63 -69.5 138t-24.5 158q0 106 40 199t110 163q69 69 162.5 109.5t199.5 40.5t199 -40.5t163 -109.5q69 -70 109.5 -163t40.5 -199zM512 384
l25 -59q9 4 16 9.5t12 13.5t8 17t3 19q0 13 -5 24.5t-14 20.5t-20.5 14t-24.5 5q-14 0 -25.5 -5t-20.5 -14q-8 -9 -13 -20.5t-5 -24.5q0 -10 2.5 -19t8.5 -17q5 -8 12 -13.5t16 -9.5zM613 148q34 15 62.5 39t48.5 54q21 31 32.5 67t11.5 76q0 53 -20 101.5t-55 85.5
t-81.5 59t-99.5 22t-100 -22t-81 -59q-35 -37 -55 -85.5t-20 -101.5q0 -40 11.5 -76t31.5 -67q21 -30 49.5 -54t62.5 -39l75 175q-22 4 -41 15.5t-32 28.5q-14 16 -21.5 37t-7.5 44q0 26 10 49.5t27 40.5q18 18 41 28t50 10q26 0 49.5 -10t40.5 -28q18 -17 28 -40.5
t10 -49.5q0 -23 -8 -44t-21 -37q-14 -17 -32.5 -28.5t-40.5 -16.5zM688 -28q60 26 110 67.5t86 94.5q36 54 56 117t20 133q0 92 -35.5 175.5t-96.5 146.5q-60 63 -142 100.5t-174 37.5q-93 0 -174.5 -37.5t-142.5 -100.5t-96 -146.5t-35 -175.5q0 -70 20 -133t56 -117
q36 -53 85.5 -94.5t109.5 -67.5l74 173q-47 16 -87 45.5t-69 68.5q-29 40 -45 88t-16 101q0 66 25 124.5t68 101.5q44 43 102 68.5t125 25.5q66 0 124.5 -25.5t101.5 -68.5t68.5 -101.5t25.5 -124.5q0 -53 -16.5 -101t-45.5 -88q-28 -39 -68 -68.5t-88 -45.5z" />
    <glyph glyph-name="uniE61E.029" 
d="M384 448q0 26 10 49.5t27 40.5q18 18 41 28t50 10q26 0 49.5 -10t40.5 -28q18 -17 28 -40.5t10 -49.5q0 -27 -10 -50t-28 -41q-17 -17 -40.5 -27t-49.5 -10q-27 0 -50 10t-41 27q-17 18 -27 41t-10 50zM664 729q38 -20 68.5 -49.5t52.5 -65.5q22 -37 34.5 -79t12.5 -87
q0 -46 -12.5 -88t-34.5 -78q-22 -37 -52.5 -66t-68.5 -50q17 27 30 58.5t22 67.5q10 35 15 74.5t5 81.5q0 41 -5 80.5t-15 75.5q-9 36 -22 67.5t-30 57.5zM288 448q0 -42 5 -81.5t14 -74.5q9 -36 22.5 -67.5t29.5 -58.5q-37 21 -68 50t-53 66q-22 36 -34 78t-12 88
q0 45 12 87t34 79q22 36 53 65.5t68 49.5q-16 -26 -29.5 -57.5t-22.5 -67.5t-14 -75.5t-5 -80.5zM96 448q0 -65 9.5 -125.5t28.5 -115.5q18 -55 44 -103t58 -88q-53 34 -96.5 80.5t-74.5 101.5t-48 118.5t-17 131.5t17 131t48 119q31 55 74.5 101t96.5 80q-32 -39 -58 -87.5
t-44 -103.5q-19 -54 -28.5 -115t-9.5 -125zM787 879q53 -34 97 -80t75 -101q31 -56 48 -119t17 -131t-17 -131.5t-48 -118.5t-75 -101.5t-97 -80.5q32 40 58 88t45 103q18 55 28 115.5t10 125.5q0 64 -10 125t-28 115q-19 55 -45 103.5t-58 87.5z" />
    <glyph glyph-name="uniE61E.030" 
d="M480 256q-33 0 -62.5 12.5t-50.5 34.5q-22 21 -34.5 50.5t-12.5 62.5v384q0 33 12.5 62t34.5 51q21 22 50.5 34.5t62.5 12.5t62 -12.5t51 -34.5t34.5 -51t12.5 -62v-384q0 -33 -12.5 -62.5t-34.5 -50.5q-22 -22 -51 -34.5t-62 -12.5zM768 512v-96q0 -56 -20 -105.5
t-54 -87.5q-35 -38 -81.5 -63t-100.5 -30v-130h128v-64h-320v64h128v130q-54 6 -101 30.5t-81 62.5q-35 38 -54.5 87.5t-19.5 105.5v96h64v-96q0 -47 17.5 -87.5t47.5 -71.5q31 -30 71.5 -47.5t87.5 -17.5q46 0 87 17.5t71 47.5q31 31 48.5 71.5t17.5 87.5v96h64z" />
    <glyph glyph-name="uniE61E.031" 
d="M960 832v-896h-768q-27 0 -50 10t-41 27q-17 18 -27 41t-10 50v768q0 26 10 49.5t27 40.5q18 18 41 28t50 10h640v-768h-608q-20 0 -37.5 -7.5t-30.5 -20.5t-20.5 -30.5t-7.5 -37.5t7.5 -37.5t20.5 -30.5t30.5 -20.5t37.5 -7.5h672v832h64zM832 128v-64h-608v0v0v0
q-7 0 -13 2.5t-10 6.5t-6.5 10t-2.5 13q0 6 2.5 12t6.5 10q4 5 10 7.5t13 2.5v0v0v0h608z" />
    <glyph glyph-name="uniE61E.032" horiz-adv-x="1152" 
d="M224 832q6 0 12 -2.5t10 -7.5q5 -4 7.5 -10t2.5 -12v-704q0 -7 -2.5 -13t-7.5 -10q-4 -4 -10 -6.5t-12 -2.5h-192q-7 0 -13 2.5t-10 6.5t-6.5 10t-2.5 13v704q0 6 2.5 12t6.5 10q4 5 10 7.5t13 2.5h192zM192 704h-128v-64h128v64zM544 832q6 0 12 -2.5t10 -7.5
q5 -4 7.5 -10t2.5 -12v-704q0 -7 -2.5 -13t-7.5 -10q-4 -4 -10 -6.5t-12 -2.5h-192q-7 0 -13 2.5t-10 6.5t-6.5 10t-2.5 13v704q0 6 2.5 12t6.5 10q5 5 10.5 7.5t12.5 2.5h192zM512 704h-128v-64h128v64zM765 782q6 3 12 3.5t12 -1.5t11 -6t8 -10l288 -571q3 -6 3 -12.5
t-1 -12.5q-2 -6 -6 -10.5t-10 -7.5l-172 -87q-6 -3 -12 -3.5t-12 1.5t-11 6t-8 10l-288 572q-3 6 -3.5 12t1.5 12t6 11t10 8zM928 96q0 6 -2.5 12t-7.5 10q-4 5 -10 7.5t-12 2.5q-7 0 -13 -2.5t-10 -7.5q-4 -4 -6.5 -10t-2.5 -12q0 -7 2.5 -13t6.5 -10t10 -6.5t13 -2.5
q6 0 12 2.5t10 6.5q5 4 7.5 10t2.5 13z" />
    <glyph glyph-name="uniE61E.033" horiz-adv-x="1088" 
d="M1024 0v64h-64v384h64v64h-192v-64h64v-384h-192v384h64v64h-192v-64h64v-384h-192v384h64v64h-192v-64h64v-384h-192v384h64v64h-192v-64h64v-384h-64v-64h-64v-64h1088v64h-64zM512 960h64l512 -320v-64h-1088v64z" />
    <glyph glyph-name="uniE61E.034" 
d="M864 960q20 0 37.5 -7.5t30.5 -20.5q13 -14 20.5 -31t7.5 -37v-832q0 -20 -7.5 -37.5t-20.5 -30.5q-14 -13 -31 -20.5t-37 -7.5h-768q-20 0 -37.5 7.5t-30.5 20.5t-20.5 30.5t-7.5 37.5v832q0 20 7.5 37.5t20.5 30.5t30.5 20.5t37.5 7.5h768zM832 832h-704v-768h704v768z
M256 512h448v-64h-448v64zM256 384h448v-64h-448v64zM256 256h448v-64h-448v64zM256 640h448v-64h-448v64z" />
    <glyph glyph-name="uniE61E.035" 
d="M864 960q20 0 37.5 -7.5t30.5 -20.5q13 -14 20.5 -31t7.5 -37v-832q0 -20 -7.5 -37.5t-20.5 -30.5q-14 -13 -31 -20.5t-37 -7.5h-768q-20 0 -37.5 7.5t-30.5 20.5t-20.5 30.5t-7.5 37.5v832q0 20 7.5 37.5t20.5 30.5t30.5 20.5t37.5 7.5h768zM832 832h-704v-768h704v768z
M256 384h448v-64h-448v64zM256 256h448v-64h-448v64zM320 672q0 20 7.5 37.5t20.5 30.5t30.5 20.5t37.5 7.5t37.5 -7.5t30.5 -20.5t20.5 -30.5t7.5 -37.5t-7.5 -37.5t-20.5 -30.5t-30.5 -20.5t-37.5 -7.5t-37.5 7.5t-30.5 20.5t-20.5 30.5t-7.5 37.5zM480 576q20 0 37.5 -5
t30.5 -14t20.5 -20.5t7.5 -24.5v-64h-320v64q0 13 7.5 24.5t20.5 20.5t30.5 14t37.5 5h128z" />
    <glyph glyph-name="uniE61E.036" 
d="M918 731q14 -20 22 -34.5t13 -25.5q4 -11 5.5 -18.5t1.5 -12.5v-624q0 -17 -6.5 -31.5t-17.5 -25.5t-25.5 -17t-30.5 -6h-736q-17 0 -31.5 6t-25.5 17t-17 25.5t-6 31.5v864q0 16 6 30.5t17 25.5t25.5 17.5t31.5 6.5h496q5 0 12.5 -1.5t18.5 -5.5q11 -5 25.5 -13
t34.5 -22q11 -9 23 -19t25 -21t26 -23t25 -25q13 -12 25 -25t23 -26t21 -25t19 -23zM785 785q-11 12 -22 22t-21 19q-11 9 -20.5 17t-17.5 15v-154h154q-7 8 -15 17.5t-17 20.5q-9 10 -19 21t-22 22zM896 640h-224q-7 0 -13 2.5t-10 6.5t-6.5 10t-2.5 13v224h-77.5h-170.5
h-170.5h-77.5q-4 0 -6.5 -1.5t-5.5 -3.5q-2 -2 -3 -5t-1 -6v-864q0 -4 1 -6.5t3 -5.5q3 -2 5.5 -3t6.5 -1h736q3 0 6 1t5 3q2 3 3.5 5.5t1.5 6.5v624z" />
    <glyph glyph-name="uniE61E.037" 
d="M918 603q14 -20 22 -34.5t13 -25.5q4 -11 5.5 -18.5t1.5 -12.5v-496q0 -17 -6.5 -31.5t-17.5 -25.5t-25.5 -17t-30.5 -6h-608q-17 0 -31.5 6t-25.5 17t-17 25.5t-6 31.5v736q0 16 6 30.5t17 25.5t25.5 17.5t31.5 6.5h368q5 0 12.5 -1.5t18.5 -5.5q11 -5 25.5 -13
t34.5 -22q11 -9 23 -19t25 -21t26 -23t25 -25q13 -12 25 -25t23 -26t21 -25t19 -23zM785 657q-11 12 -22 22t-21 19q-11 9 -20.5 17t-17.5 15v-154h154q-7 8 -15 17.5t-17 20.5q-9 10 -19 21t-22 22zM896 512h-224q-7 0 -13 2.5t-10 6.5t-6.5 10t-2.5 13v224h-57.5h-126.5
h-126.5h-57.5q-4 0 -6.5 -1.5t-5.5 -3.5q-2 -2 -3 -5t-1 -6v-736q0 -4 1 -6.5t3 -5.5q3 -2 5.5 -3t6.5 -1h608q3 0 6 1t5 3q2 3 3.5 5.5t1.5 6.5v496zM603 918q3 -3 6.5 -5.5t6.5 -5.5q4 -3 7.5 -5.5t7.5 -5.5h-487q-4 0 -6.5 -1.5t-5.5 -3.5q-2 -2 -3 -5t-1 -6v-815
q-14 3 -25.5 10t-20.5 18q-9 10 -13.5 23t-4.5 28v736q0 16 6 30.5t17 25.5t25.5 17.5t31.5 6.5h368q5 0 12.5 -1.5t18.5 -5.5q11 -5 25.5 -13t34.5 -22z" />
    <glyph glyph-name="uniE61E.038" 
d="M918 731q14 -20 22 -34.5t13 -25.5q4 -11 5.5 -18.5t1.5 -12.5v-624q0 -17 -6.5 -31.5t-17.5 -25.5t-25.5 -17t-30.5 -6h-736q-17 0 -31.5 6t-25.5 17t-17 25.5t-6 31.5v864q0 16 6 30.5t17 25.5t25.5 17.5t31.5 6.5h496q5 0 12.5 -1.5t18.5 -5.5q11 -5 25.5 -13
t34.5 -22q11 -9 23 -19t25 -21t26 -23t25 -25q13 -12 25 -25t23 -26t21 -25t19 -23zM785 785q-11 12 -22 22t-21 19q-11 9 -20.5 17t-17.5 15v-154h154q-7 8 -15 17.5t-17 20.5q-9 10 -19 21t-22 22zM896 640h-224q-7 0 -13 2.5t-10 6.5t-6.5 10t-2.5 13v224h-77.5h-170.5
h-170.5h-77.5q-4 0 -6.5 -1.5t-5.5 -3.5q-2 -2 -3 -5t-1 -6v-864q0 -4 1 -6.5t3 -5.5q3 -2 5.5 -3t6.5 -1h736q3 0 6 1t5 3q2 3 3.5 5.5t1.5 6.5v624zM736 128h-448q-7 0 -13 2.5t-10 6.5t-6.5 10t-2.5 13q0 6 2.5 12t6.5 10q4 5 10 7.5t13 2.5h448q6 0 12 -2.5t10 -7.5
q5 -4 7.5 -10t2.5 -12q0 -7 -2.5 -13t-7.5 -10q-4 -4 -10 -6.5t-12 -2.5zM736 256h-448q-7 0 -13 2.5t-10 6.5t-6.5 10t-2.5 13q0 6 2.5 12t6.5 10q4 5 10 7.5t13 2.5h448q6 0 12 -2.5t10 -7.5q5 -4 7.5 -10t2.5 -12q0 -7 -2.5 -13t-7.5 -10q-4 -4 -10 -6.5t-12 -2.5z
M736 384h-448q-7 0 -13 2.5t-10 6.5t-6.5 10t-2.5 13q0 6 2.5 12t6.5 10q4 5 10 7.5t13 2.5h448q6 0 12 -2.5t10 -7.5q5 -4 7.5 -10t2.5 -12q0 -7 -2.5 -13t-7.5 -10q-4 -4 -10 -6.5t-12 -2.5z" />
    <glyph glyph-name="uniE61E.039" 
d="M832 64h-640v128l192 320l263 -320l185 128v-256zM832 480q0 -20 -7.5 -37.5t-20.5 -30.5t-30.5 -20.5t-37.5 -7.5t-37.5 7.5t-30.5 20.5t-20.5 30.5t-7.5 37.5t7.5 37.5t20.5 30.5t30.5 20.5t37.5 7.5t37.5 -7.5t30.5 -20.5t20.5 -30.5t7.5 -37.5zM918 731
q14 -20 22 -34.5t13 -25.5q4 -11 5.5 -18.5t1.5 -12.5v-624q0 -17 -6.5 -31.5t-17.5 -25.5t-25.5 -17t-30.5 -6h-736q-17 0 -31.5 6t-25.5 17t-17 25.5t-6 31.5v864q0 16 6 30.5t17 25.5t25.5 17.5t31.5 6.5h496q5 0 12.5 -1.5t18.5 -5.5q11 -5 25.5 -13t34.5 -22
q11 -9 23 -19t25 -21t26 -23t25 -25q13 -12 25 -25t23 -26t21 -25t19 -23zM785 785q-11 12 -22 22t-21 19q-11 9 -20.5 17t-17.5 15v-154h154q-7 8 -15 17.5t-17 20.5q-9 10 -19 21t-22 22zM896 640h-224q-7 0 -13 2.5t-10 6.5t-6.5 10t-2.5 13v224h-77.5h-170.5h-170.5
h-77.5q-4 0 -6.5 -1.5t-5.5 -3.5q-2 -2 -3 -5t-1 -6v-864q0 -4 1 -6.5t3 -5.5q3 -2 5.5 -3t6.5 -1h736q3 0 6 1t5 3q2 3 3.5 5.5t1.5 6.5v624z" />
    <glyph glyph-name="uniE61E.040" 
d="M918 731q14 -20 22 -34.5t13 -25.5q4 -11 5.5 -18.5t1.5 -12.5v-624q0 -17 -6.5 -31.5t-17.5 -25.5t-25.5 -17t-30.5 -6h-736q-17 0 -31.5 6t-25.5 17t-17 25.5t-6 31.5v864q0 16 6 30.5t17 25.5t25.5 17.5t31.5 6.5h496q5 0 12.5 -1.5t18.5 -5.5q11 -5 25.5 -13
t34.5 -22q11 -9 23 -19t25 -21t26 -23t25 -25q13 -12 25 -25t23 -26t21 -25t19 -23zM785 785q-11 12 -22 22t-21 19q-11 9 -20.5 17t-17.5 15v-154h154q-7 8 -15 17.5t-17 20.5q-9 10 -19 21t-22 22zM896 640h-224q-7 0 -13 2.5t-10 6.5t-6.5 10t-2.5 13v224h-77.5h-170.5
h-170.5h-77.5q-4 0 -6.5 -1.5t-5.5 -3.5q-2 -2 -3 -5t-1 -6v-864q0 -4 1 -6.5t3 -5.5q3 -2 5.5 -3t6.5 -1h736q3 0 6 1t5 3q2 3 3.5 5.5t1.5 6.5v624zM756 568q3 -2 5 -4.5t4 -6.5q1 -3 2 -6.5t1 -6.5v-320q0 -20 -10 -37.5t-28 -30.5q-17 -13 -40.5 -20.5t-49.5 -7.5
q-27 0 -50 7.5t-41 20.5q-17 13 -27 30.5t-10 37.5t10 37.5t27 30.5q18 13 41 20.5t50 7.5q8 0 16.5 -1t16.5 -3q8 -1 16 -3.5t15 -5.5v134l-256 -51v-230q0 -20 -10 -37.5t-28 -30.5q-17 -13 -40.5 -20.5t-49.5 -7.5q-27 0 -50 7.5t-41 20.5q-17 13 -27 30.5t-10 37.5
t10 37.5t27 30.5q18 13 41 20.5t50 7.5q8 0 16.5 -1t16.5 -3q8 -1 16 -3.5t15 -5.5v237q0 5 2 10.5t5 9.5t8 7t10 4l320 64q4 1 7.5 1t7.5 -1q3 -1 6 -2.5t6 -4.5z" />
    <glyph glyph-name="uniE61E.041" 
d="M384 576l320 -224l-320 -224v448zM918 731q14 -20 22 -34.5t13 -25.5q4 -11 5.5 -18.5t1.5 -12.5v-624q0 -17 -6.5 -31.5t-17.5 -25.5t-25.5 -17t-30.5 -6h-736q-17 0 -31.5 6t-25.5 17t-17 25.5t-6 31.5v864q0 16 6 30.5t17 25.5t25.5 17.5t31.5 6.5h496q5 0 12.5 -1.5
t18.5 -5.5q11 -5 25.5 -13t34.5 -22q11 -9 23 -19t25 -21t26 -23t25 -25q13 -12 25 -25t23 -26t21 -25t19 -23zM785 785q-11 12 -22 22t-21 19q-11 9 -20.5 17t-17.5 15v-154h154q-7 8 -15 17.5t-17 20.5q-9 10 -19 21t-22 22zM896 640h-224q-7 0 -13 2.5t-10 6.5t-6.5 10
t-2.5 13v224h-77.5h-170.5h-170.5h-77.5q-4 0 -6.5 -1.5t-5.5 -3.5q-2 -2 -3 -5t-1 -6v-864q0 -4 1 -6.5t3 -5.5q3 -2 5.5 -3t6.5 -1h736q3 0 6 1t5 3q2 3 3.5 5.5t1.5 6.5v624z" />
    <glyph glyph-name="uniE61E.042" 
d="M918 731v0q14 -20 22 -34.5t13 -25.5q4 -11 5.5 -18.5t1.5 -12.5v-624q0 -17 -6.5 -31.5t-17.5 -25.5t-25.5 -17t-30.5 -6h-736q-17 0 -31.5 6t-25.5 17t-17 25.5t-6 31.5v864q0 16 6 30.5t17 25.5t25.5 17.5t31.5 6.5h496q5 0 12.5 -1.5t18.5 -5.5q11 -5 25.5 -13
t34.5 -22q11 -9 23 -19t25 -21t26 -23t25 -25q13 -12 25 -25t23 -26t21 -25t19 -23zM785 785v0q-11 12 -22 22t-21 19q-11 9 -20.5 17t-17.5 15v-154h154q-7 8 -15 17.5t-17 20.5q-9 10 -19 21t-22 22zM896 640h-224q-7 0 -13 2.5t-10 6.5t-6.5 10t-2.5 13v224h-77.5h-170.5
h-170.5h-77.5q-4 0 -6.5 -1.5t-5.5 -3.5q-2 -2 -3 -5t-1 -6v-864q0 -4 1 -6.5t3 -5.5q3 -2 5.5 -3t6.5 -1h736q3 0 6 1t5 3q2 3 3.5 5.5t1.5 6.5v624zM256 448h320v-320h-320v320zM576 320l192 128v-320l-192 128v64z" />
    <glyph glyph-name="uniE61E.043" 
d="M918 731v0q14 -20 22 -34.5t13 -25.5q4 -11 5.5 -18.5t1.5 -12.5v-624q0 -17 -6.5 -31.5t-17.5 -25.5t-25.5 -17t-30.5 -6h-736q-17 0 -31.5 6t-25.5 17t-17 25.5t-6 31.5v864q0 16 6 30.5t17 25.5t25.5 17.5t31.5 6.5h496q5 0 12.5 -1.5t18.5 -5.5q11 -5 25.5 -13
t34.5 -22q11 -9 23 -19t25 -21t26 -23t25 -25q13 -12 25 -25t23 -26t21 -25t19 -23zM785 785v0q-11 12 -22 22t-21 19q-11 9 -20.5 17t-17.5 15v-154h154q-7 8 -15 17.5t-17 20.5q-9 10 -19 21t-22 22zM896 640h-224q-7 0 -13 2.5t-10 6.5t-6.5 10t-2.5 13v224h-77.5h-170.5
h-170.5h-77.5q-4 0 -6.5 -1.5t-5.5 -3.5q-2 -2 -3 -5t-1 -6v-864q0 -4 1 -6.5t3 -5.5q3 -2 5.5 -3t6.5 -1h736q3 0 6 1t5 3q2 3 3.5 5.5t1.5 6.5v624zM256 832h128v64h-128v-64zM384 832h128v-64h-128v64zM256 768h128v-64h-128v64zM384 704h128v-64h-128v64zM256 640h128
v-64h-128v64zM384 576h128v-64h-128v64zM256 512h128v-64h-128v64zM384 448h128v-64h-128v64zM256 384h128v-64h80q10 0 18.5 -4t15.5 -10q6 -7 10 -15.5t4 -18.5v-160q0 -10 -4 -19t-10 -15q-7 -7 -15.5 -10.5t-18.5 -3.5h-160q-10 0 -19 3.5t-15 10.5q-7 6 -10.5 15
t-3.5 19v272zM320 192v-64h128v64h-128z" />
    <glyph glyph-name="uniE61E.044" 
d="M1024 704v-768h-640v256h-384v576l192 192h448v-256h384zM90 768h102v101zM384 256v256l192 192v192h-320v-192h-192v-448h320zM474 512h102v101zM960 640h-320v-192h-192v-448h512v640z" />
    <glyph glyph-name="uniE61E.045" 
d="M704 704h-512v128h128v64q0 13 5 24.5t14 20.5q8 9 20 14t25 5h128q13 0 24.5 -5t20.5 -14t14 -20.5t5 -24.5v-64h128v-128zM512 896v0v0h-128v0v0v-64h128v64zM1024 640v-704h-640v192h-288q-7 0 -13 2.5t-10 6.5q-4 5 -6.5 10.5t-2.5 12.5v640q0 6 2.5 12t6.5 10
q4 5 10 7.5t13 2.5h64v-64h-32v-576h256v256l192 192h192v128h-32v64h64q6 0 12 -2.5t10 -7.5q5 -4 7.5 -10t2.5 -12v-160h192zM474 448h102v101zM960 576h-320v-192h-192v-384h512v576z" />
    <glyph glyph-name="uniE61E.046" 
d="M512 384l-512 256l512 256l512 -256zM170 640l342 -171l342 171l-342 171zM921 499l103 -51l-512 -256l-512 256l102 51l410 -205zM921 307l103 -51l-512 -256l-512 256l102 51l410 -205z" />
    <glyph glyph-name="uniE61E.047" 
d="M448 832l128 -128h448v-704h-1024v832h448z" />
    <glyph glyph-name="uniE61E.048" 
d="M832 0l192 512h-832l-192 -512h832zM128 576l-128 -576v832h288l128 -128h416v-128h-704z" />
    <glyph glyph-name="uniE61E.049" 
d="M1024 704v-704h-1024v832h448l128 -128h448zM704 384h-128v128h-128v-128h-128v-128h128v-128h128v128h128v128z" />
    <glyph glyph-name="uniE61E.050" 
d="M1024 704v-704h-1024v832h448l128 -128h448zM704 384h-384v-128h384v128z" />
    <glyph glyph-name="uniE61E.051" 
d="M1024 704v-704h-1024v832h448l128 -128h448zM736 320h-160v256h-128v-256h-160l224 -224z" />
    <glyph glyph-name="uniE61E.052" 
d="M1024 704v-704h-1024v832h448l128 -128h448zM288 256h160v-256h128v256h160l-224 224z" />
    <glyph glyph-name="uniE61E.053" 
d="M976 960q10 0 18.5 -4t15.5 -10q6 -7 10 -15.5t4 -18.5v-384q0 -10 -3 -21.5t-7 -22.5q-5 -11 -11 -21t-13 -17l-476 -476q-7 -7 -16 -10.5t-18 -3.5t-18 3.5t-16 10.5l-412 412q-7 7 -10.5 16t-3.5 18t3.5 18t10.5 16l476 476q7 7 17 13t21 11q11 4 22.5 7t21.5 3h384z
M736 576q20 0 37.5 7.5t30.5 20.5t20.5 30.5t7.5 37.5t-7.5 37.5t-20.5 30.5t-30.5 20.5t-37.5 7.5t-37.5 -7.5t-30.5 -20.5t-20.5 -30.5t-7.5 -37.5t7.5 -37.5t20.5 -30.5t30.5 -20.5t37.5 -7.5z" />
    <glyph glyph-name="uniE61E.054" horiz-adv-x="1280" 
d="M1232 960q10 0 18.5 -4t15.5 -10q6 -7 10 -15.5t4 -18.5v-384q0 -10 -3 -21.5t-7 -22.5q-5 -11 -11 -21t-13 -17l-476 -476q-7 -7 -16 -10.5t-18 -3.5t-18 3.5t-16 10.5l-412 412q-7 7 -10.5 16t-3.5 18t3.5 18t10.5 16l476 476q7 7 17 13t21 11q11 4 22.5 7t21.5 3h384z
M992 576q20 0 37.5 7.5t30.5 20.5t20.5 30.5t7.5 37.5t-7.5 37.5t-20.5 30.5t-30.5 20.5t-37.5 7.5t-37.5 -7.5t-30.5 -20.5t-20.5 -30.5t-7.5 -37.5t7.5 -37.5t20.5 -30.5t30.5 -20.5t37.5 -7.5zM544 0l-30 -30q-7 -7 -16 -10.5t-18 -3.5t-18 3.5t-16 10.5l-412 412
q-7 7 -10.5 16t-3.5 18t3.5 18t10.5 16l476 476q7 7 17 13t21 11q11 4 22.5 7t21.5 3h80l-544 -544z" />
    <glyph glyph-name="uniE61E.055" 
d="M0 832h128v-640h-128v640zM192 832h64v-640h-64v640zM320 832h64v-640h-64v640zM512 832h64v-640h-64v640zM768 832h64v-640h-64v640zM960 832h64v-640h-64v640zM640 832h32v-640h-32v640zM448 832h32v-640h-32v640zM864 832h32v-640h-32v640zM0 128h64v-64h-64v64z
M192 128h64v-64h-64v64zM320 128h64v-64h-64v64zM640 128h64v-64h-64v64zM960 128h64v-64h-64v64zM768 128h128v-64h-128v64zM448 128h128v-64h-128v64z" />
    <glyph glyph-name="uniE61E.056" 
d="M320 896h-256v-256h256v256zM384 960v0v-384h-384v384h384zM128 832h128v-128h-128v128zM960 896h-256v-256h256v256zM1024 960v0v-384h-384v384h384zM768 832h128v-128h-128v128zM320 256h-256v-256h256v256zM384 320v0v-384h-384v384h384zM128 192h128v-128h-128v128z
M448 960h64v-64h-64v64zM512 896h64v-64h-64v64zM448 832h64v-64h-64v64zM512 768h64v-64h-64v64zM448 704h64v-64h-64v64zM512 640h64v-64h-64v64zM448 576h64v-64h-64v64zM448 448h64v-64h-64v64zM512 384h64v-64h-64v64zM448 320h64v-64h-64v64zM512 256h64v-64h-64v64z
M448 192h64v-64h-64v64zM512 128h64v-64h-64v64zM448 64h64v-64h-64v64zM512 0h64v-64h-64v64zM960 448h64v-64h-64v64zM64 448h64v-64h-64v64zM128 512h64v-64h-64v64zM0 512h64v-64h-64v64zM256 512h64v-64h-64v64zM320 448h64v-64h-64v64zM384 512h64v-64h-64v64z
M576 448h64v-64h-64v64zM640 512h64v-64h-64v64zM704 448h64v-64h-64v64zM768 512h64v-64h-64v64zM832 448h64v-64h-64v64zM896 512h64v-64h-64v64zM960 320h64v-64h-64v64zM576 320h64v-64h-64v64zM640 384h64v-64h-64v64zM704 320h64v-64h-64v64zM832 320h64v-64h-64v64z
M896 384h64v-64h-64v64zM960 192h64v-64h-64v64zM576 192h64v-64h-64v64zM640 256h64v-64h-64v64zM768 256h64v-64h-64v64zM832 192h64v-64h-64v64zM896 256h64v-64h-64v64zM960 64h64v-64h-64v64zM640 128h64v-64h-64v64zM704 64h64v-64h-64v64zM768 128h64v-64h-64v64z
M832 64h64v-64h-64v64zM640 0h64v-64h-64v64zM768 0h64v-64h-64v64zM896 0h64v-64h-64v64z" />
    <glyph glyph-name="uniE61E.057" 
d="M576 640l128 -128l-256 -256l-128 128zM1001 662q12 -11 17.5 -25t5.5 -29t-5.5 -29t-17.5 -26l-595 -595q-11 -11 -25 -16.5t-29 -5.5t-29.5 5.5t-25.5 16.5l-73 74l32 32q6 6 11 13t8 16q4 8 5.5 16.5t1.5 18.5q0 18 -7 34.5t-19 29.5q-13 12 -29.5 19t-34.5 7
q-10 0 -18.5 -1.5t-17.5 -5.5q-8 -3 -15 -8t-13 -11l-32 -32l-74 73q-11 11 -16.5 25.5t-5.5 29.5t5.5 29t16.5 25l595 595q12 12 26 17.5t29 5.5t29 -5.5t25 -17.5l74 -73l-32 -32q-6 -6 -11 -13.5t-9 -15.5q-3 -8 -5 -17t-2 -18q0 -19 7 -35.5t20 -28.5q12 -13 28.5 -20
t35.5 -7q9 0 18 2t17 5q8 4 15.5 9t13.5 11l32 32zM832 512l-256 256l-384 -384l256 -256z" />
    <glyph glyph-name="uniE61E.058" 
d="M384 32q0 -20 -7.5 -37.5t-20.5 -30.5t-30.5 -20.5t-37.5 -7.5t-37.5 7.5t-30.5 20.5t-20.5 30.5t-7.5 37.5t7.5 37.5t20.5 30.5t30.5 20.5t37.5 7.5t37.5 -7.5t30.5 -20.5t20.5 -30.5t7.5 -37.5zM1024 32q0 -20 -7.5 -37.5t-20.5 -30.5t-30.5 -20.5t-37.5 -7.5
t-37.5 7.5t-30.5 20.5t-20.5 30.5t-7.5 37.5t7.5 37.5t20.5 30.5t30.5 20.5t37.5 7.5t37.5 -7.5t30.5 -20.5t20.5 -30.5t7.5 -37.5zM192 320v0v0q0 -14 5 -25.5t13 -20.5q9 -8 20.5 -13t25.5 -5h768v-64h-768q-27 0 -50 10t-41 27q-17 18 -27 41t-10 50q0 15 3.5 29t9.5 27
t15 24t20 20l-48 412h-128v64h192q13 0 24.5 -5t20.5 -14t14 -20.5t5 -24.5h768v-384z" />
    <glyph glyph-name="uniE61E.059" 
d="M480 896q99 0 186.5 -38t152.5 -103t103 -152.5t38 -186.5q0 -100 -38 -187.5t-103 -152.5t-152.5 -102.5t-186.5 -37.5q-100 0 -187.5 37.5t-152.5 102.5t-102.5 152.5t-37.5 187.5q0 99 37.5 186.5t102.5 152.5t152.5 103t187.5 38zM480 32q79 0 149 30t122 82
t82.5 122t30.5 150q0 79 -30.5 149t-82.5 122t-122 82.5t-149 30.5q-80 0 -150 -30.5t-122 -82.5t-82 -122t-30 -149q0 -80 30 -150t82 -122t122 -82t150 -30zM640 448v-256h-128v-64h-64v64h-128v64h128v128h-128v256h128v64h64v-64h128v-64h-128v-128h128zM448 576h-64
v-128h64v128zM576 384h-64v-128h64v128z" />
    <glyph glyph-name="uniE61E.060" 
d="M480 896q99 0 186.5 -38t152.5 -103t103 -152.5t38 -186.5q0 -100 -38 -187.5t-103 -152.5t-152.5 -102.5t-186.5 -37.5q-100 0 -187.5 37.5t-152.5 102.5t-102.5 152.5t-37.5 187.5q0 99 37.5 186.5t102.5 152.5t152.5 103t187.5 38zM480 32q79 0 149 30t122 82
t82.5 122t30.5 150q0 79 -30.5 149t-82.5 122t-122 82.5t-149 30.5q-80 0 -150 -30.5t-122 -82.5t-82 -122t-30 -149q0 -80 30 -150t82 -122t122 -82t150 -30zM671 315q5 -3 9 -8t5 -11q2 -6 1 -12.5t-4 -11.5q-11 -19 -26 -33.5t-33 -25.5q-17 -10 -37.5 -15.5t-41.5 -5.5
h-128q-29 0 -55 9.5t-47 26.5q-21 18 -35 41t-20 51h-35q-7 0 -13 2.5t-10 6.5t-6.5 10t-2.5 13q0 6 2.5 12t6.5 10q4 5 10 7.5t13 2.5h32v64h-32q-7 0 -13 2.5t-10 6.5t-6.5 10t-2.5 13q0 6 2.5 12t6.5 10q4 5 10 7.5t13 2.5h35q6 27 20 50.5t35 40.5t47 27t55 10h128
q21 0 41.5 -5.5t37.5 -16.5q18 -10 33 -25t26 -33q3 -6 4 -12t-1 -12q-1 -6 -5 -11.5t-9 -8.5q-6 -3 -12.5 -4t-12.5 1q-6 1 -11 5t-8 10q-7 11 -16 20t-19 15q-11 6 -23.5 9.5t-24.5 3.5h-128q-16 0 -30 -5t-26 -13q-12 -9 -21 -20.5t-14 -25.5h155q6 0 12 -2.5t10 -7.5
q5 -4 7.5 -10t2.5 -12q0 -7 -2.5 -13t-7.5 -10q-4 -4 -10 -6.5t-12 -2.5h-160v-64h160q6 0 12 -2.5t10 -7.5q5 -4 7.5 -10t2.5 -12q0 -7 -2.5 -13t-7.5 -10q-4 -4 -10 -6.5t-12 -2.5h-155q5 -14 14 -26t21 -20q12 -9 26 -13.5t30 -4.5h128q12 0 24.5 3t23.5 10q10 6 19 15
t16 20q3 6 8 9.5t11 5.5q6 1 12.5 0.5t12.5 -4.5z" />
    <glyph glyph-name="uniE61E.061" 
d="M480 896q99 0 186.5 -38t152.5 -103t103 -152.5t38 -186.5q0 -100 -38 -187.5t-103 -152.5t-152.5 -102.5t-186.5 -37.5q-100 0 -187.5 37.5t-152.5 102.5t-102.5 152.5t-37.5 187.5q0 99 37.5 186.5t102.5 152.5t152.5 103t187.5 38zM480 32q79 0 149 30t122 82
t82.5 122t30.5 150q0 79 -30.5 149t-82.5 122t-122 82.5t-149 30.5q-80 0 -150 -30.5t-122 -82.5t-82 -122t-30 -149q0 -80 30 -150t82 -122t122 -82t150 -30zM608 256q6 0 12 -2.5t10 -7.5q5 -4 7.5 -10t2.5 -12q0 -7 -2.5 -13t-7.5 -10q-4 -4 -10 -6.5t-12 -2.5h-288v192
h-32q-7 0 -13 2.5t-10 6.5t-6.5 10t-2.5 13q0 6 2.5 12t6.5 10q4 5 10 7.5t13 2.5h32v32q0 33 12.5 62t34.5 51q21 22 50.5 34.5t62.5 12.5q21 0 41.5 -5.5t38.5 -16.5q18 -10 33 -25t25 -33q4 -6 4.5 -12.5t-0.5 -12.5q-2 -5 -6 -10.5t-9 -8.5q-6 -3 -12.5 -4t-12.5 1
q-6 1 -11 5t-8 10q-6 11 -15 20t-20 15t-23 9.5t-25 3.5q-20 0 -37.5 -7.5t-30.5 -20.5t-20.5 -30.5t-7.5 -37.5v-32h96q6 0 12 -2.5t10 -7.5q5 -4 7.5 -10t2.5 -12q0 -7 -2.5 -13t-7.5 -10q-4 -4 -10 -6.5t-12 -2.5h-96v-128h224z" />
    <glyph glyph-name="uniE61E.062" 
d="M480 896q99 0 186.5 -38t152.5 -103t103 -152.5t38 -186.5q0 -100 -38 -187.5t-103 -152.5t-152.5 -102.5t-186.5 -37.5q-100 0 -187.5 37.5t-152.5 102.5t-102.5 152.5t-37.5 187.5q0 99 37.5 186.5t102.5 152.5t152.5 103t187.5 38zM480 32q79 0 149 30t122 82
t82.5 122t30.5 150q0 79 -30.5 149t-82.5 122t-122 82.5t-149 30.5q-80 0 -150 -30.5t-122 -82.5t-82 -122t-30 -149q0 -80 30 -150t82 -122t122 -82t150 -30zM512 384v-64h96q6 0 12 -2.5t10 -7.5q5 -4 7.5 -10t2.5 -12q0 -7 -2.5 -13t-7.5 -10q-4 -4 -10 -6.5t-12 -2.5
h-96v-96q0 -7 -2.5 -13t-7.5 -10q-4 -4 -10 -6.5t-12 -2.5q-7 0 -13 2.5t-10 6.5t-6.5 10t-2.5 13v96h-96q-7 0 -13 2.5t-10 6.5t-6.5 10t-2.5 13q0 6 2.5 12t6.5 10q4 5 10 7.5t13 2.5h96v64h-96q-7 0 -13 2.5t-10 6.5t-6.5 10t-2.5 13q0 6 2.5 12t6.5 10q4 5 10 7.5
t13 2.5h68l-95 142q-4 6 -5 12t0 12q2 6 5 11.5t9 8.5q6 4 12 5t12 0t11.5 -4.5t8.5 -9.5l102 -152l101 153q4 5 9 8.5t11 4.5t12.5 0t11.5 -5q6 -3 9.5 -8.5t4.5 -11.5t0 -12t-5 -12l-94 -142h68q6 0 12 -2.5t10 -7.5q5 -4 7.5 -10t2.5 -12q0 -7 -2.5 -13t-7.5 -10
q-4 -4 -10 -6.5t-12 -2.5h-96z" />
    <glyph glyph-name="uniE61E.063" 
d="M928 832q20 0 37.5 -7.5t30.5 -20.5q13 -14 20.5 -31t7.5 -37v-576q0 -20 -7.5 -37.5t-20.5 -30.5q-14 -13 -31 -20.5t-37 -7.5h-832q-20 0 -37.5 7.5t-30.5 20.5t-20.5 30.5t-7.5 37.5v576q0 20 7.5 37.5t20.5 30.5t30.5 20.5t37.5 7.5h832zM96 768q-7 0 -12.5 -2.5
t-10.5 -7.5q-4 -4 -6.5 -10t-2.5 -12v-96h896v96q0 6 -2.5 12t-7.5 10q-4 5 -10 7.5t-12 2.5h-832zM928 128q6 0 12 2.5t10 6.5q5 5 7.5 10.5t2.5 12.5v288h-896v-288q0 -7 2.5 -12.5t6.5 -10.5q5 -4 10.5 -6.5t12.5 -2.5h832zM128 320h64v-128h-64v128zM256 320h64v-128
h-64v128zM384 320h64v-128h-64v128z" />
    <glyph glyph-name="uniE61E.064" 
d="M384 896q13 0 24.5 -5t20.5 -14t14 -20.5t5 -24.5v-320q0 -13 -5 -25t-14 -20q-9 -9 -20.5 -14t-24.5 -5h-320q-13 0 -25 5t-20 14q-9 8 -14 20t-5 25v320q0 13 5 24.5t14 20.5q8 9 20 14t25 5h320zM384 704h-320v-64h320v64zM896 896q13 0 24.5 -5t20.5 -14t14 -20.5
t5 -24.5v-832q0 -13 -5 -25t-14 -20q-9 -9 -20.5 -14t-24.5 -5h-320q-13 0 -25 5t-20 14q-9 8 -14 20t-5 25v832q0 13 5 24.5t14 20.5q8 9 20 14t25 5h320zM896 384h-320v-64h320v64zM896 576h-320v-64h320v64zM384 384q13 0 24.5 -5t20.5 -14t14 -20.5t5 -24.5v-320
q0 -13 -5 -25t-14 -20q-9 -9 -20.5 -14t-24.5 -5h-320q-13 0 -25 5t-20 14q-9 8 -14 20t-5 25v320q0 13 5 24.5t14 20.5q8 9 20 14t25 5h320zM384 192h-128v128h-64v-128h-128v-64h128v-128h64v128h128v64z" />
    <glyph glyph-name="uniE61E.065" 
d="M512 960q106 0 199 -40.5t163 -109.5q69 -70 109.5 -163t40.5 -199t-40.5 -199.5t-109.5 -162.5q-70 -70 -163 -110t-199 -40t-199.5 40t-162.5 110q-70 69 -110 162.5t-40 199.5t40 199t110 163q69 69 162.5 109.5t199.5 40.5zM320 448q0 -40 15 -75t41 -61t61 -41
t75 -15t74.5 15t61.5 41q26 26 41 61t15 75t-15 74.5t-41 61.5q-27 26 -61.5 41t-74.5 15t-75 -15t-61 -41q-26 -27 -41 -61.5t-15 -74.5zM926 276q8 20 14.5 41t10.5 42q4 22 6.5 44t2.5 45t-2.5 45t-6.5 43q-4 22 -10.5 42.5t-14.5 40.5l-178 -73q5 -12 8.5 -23.5
t6.5 -24.5q2 -12 3.5 -24.5t1.5 -25.5t-1.5 -26t-3.5 -25q-3 -12 -6.5 -24t-8.5 -23l178 -74v0zM683 862q-20 8 -40.5 14.5t-42.5 10.5q-21 4 -43 6.5t-45 2.5t-45 -2.5t-44 -6.5q-21 -4 -42 -10.5t-41 -14.5l74 -178q11 5 23 8.5t24 6.5q12 2 25 3.5t26 1.5t25.5 -1.5
t24.5 -3.5q13 -3 24.5 -6.5t23.5 -8.5l73 178v0v0zM98 619q-8 -20 -14.5 -40.5t-10.5 -42.5q-5 -21 -7 -43t-2 -45t2 -45t7 -44q4 -21 10.5 -42t14.5 -41l177 74q-5 11 -8.5 23t-5.5 24q-3 12 -4 25t-1 26t1 25.5t4 24.5q2 13 5.5 24.5t8.5 23.5zM340 34q20 -8 41 -14.5
t42 -10.5q22 -5 44 -7t45 -2t45 2t43 7q22 4 42.5 10.5t40.5 14.5l-73 177q-12 -5 -23.5 -8.5t-24.5 -5.5q-12 -3 -24.5 -4t-25.5 -1t-26 1t-25 4q-12 2 -24 5.5t-23 8.5z" />
    <glyph glyph-name="uniE61E.066" 
d="M704 320q24 24 67 6t85 -54t73 -78t31 -66t-30 -57t-66 -63t-66 -51l-30 -21q-48 0 -116.5 22.5t-141.5 58.5q-72 36 -140 82t-114 93q-47 46 -93 114t-82 140q-36 73 -58.5 141.5t-22.5 116.5l21 30t51 66t63 66t57 30t66 -31t78 -73t54 -85t-6 -67t-47 -38t-41 -26
t-29 -26t-11 -38t11 -48t29 -48t41 -48t47 -48t48 -47t48 -41t48 -29t48 -11t38 11t26 29t26 41t38 47z" />
    <glyph glyph-name="uniE61E.067" 
d="M1017 384q3 -21 5 -44.5t2 -45.5q-1 -23 -5 -41.5t-14 -29.5q-15 -18 -64 -26t-102 -4q-53 5 -94 23.5t-41 54.5q0 19 6 34.5t10 30.5t2.5 30.5t-17.5 33.5q-15 17 -35.5 27t-45.5 14q-25 5 -53.5 6t-58.5 1q-31 0 -59 -1t-53 -6q-25 -4 -46 -14t-36 -27
q-15 -18 -17 -33.5t2 -30.5q5 -15 11 -30.5t6 -34.5q0 -36 -41.5 -54.5t-94.5 -23.5q-52 -4 -101.5 4t-64.5 26q-9 11 -13.5 29.5t-4.5 41.5q-1 22 1 45.5t5 44.5q3 14 7.5 28.5t12.5 30.5q8 15 20.5 32.5t31.5 36.5v0v0q28 26 64.5 49t87.5 40q51 18 119 28t159 11v0h2h2h2
h2v0q90 -1 158 -11t119 -28q51 -17 88 -40t65 -49v0v0q18 -19 31 -36.5t21 -32.5q8 -16 12.5 -30.5t6.5 -28.5z" />
    <glyph glyph-name="uniE61E.068" 
d="M960 960v-1024h-768v1024h768zM576 703q-27 0 -50 -10t-41 -27q-17 -17 -27 -40.5t-10 -49.5q0 -27 10 -50t27 -41q18 -17 41 -27t50 -10q26 0 49.5 10t40.5 27q17 18 27 41t10 50q0 26 -10 49.5t-27 40.5t-40.5 27t-49.5 10zM768 256q0 26 -10 49.5t-28 40.5
q-17 18 -40.5 28t-49.5 10h-128v0q-27 0 -50 -10t-41 -28q-17 -17 -27 -40.5t-10 -49.5v-64h384v64zM64 896h96v-192h-96v192zM64 640h96v-192h-96v192zM64 384h96v-192h-96v192zM64 128h96v-192h-96v192z" />
    <glyph glyph-name="uniE61E.069" 
d="M928 832q20 0 37.5 -7.5t30.5 -20.5q13 -14 20.5 -31t7.5 -37v-640q0 -20 -7.5 -37.5t-20.5 -30.5q-14 -13 -31 -20.5t-37 -7.5h-832q-20 0 -37.5 7.5t-30.5 20.5t-20.5 30.5t-7.5 37.5v640q0 20 7.5 37.5t20.5 30.5t30.5 20.5t37.5 7.5h832zM128 700v-502l270 211z
M512 452l335 252h-671zM198 128h627l-211 270l-102 -110l-103 110zM896 198v502l-271 -291z" />
    <glyph glyph-name="uniE61E.070" 
d="M1024 480l-96 -96l-96 96l-256 -224v-224l-176 176l-361 -272h-39v39l272 361l-176 176h224l224 256l-96 96l96 96zM672 640l-64 64l-224 -224l64 -64z" />
    <glyph glyph-name="uniE61E.071" 
d="M512 960q66 0 124.5 -25.5t101.5 -68.5t68.5 -101.5t25.5 -124.5q0 -120 -50 -245t-110 -227t-110 -167l-50 -65l-50 65t-110 167t-110 227t-50 245q0 66 25 124.5t68 101.5q44 43 102 68.5t125 25.5zM512 448q40 0 74.5 15t61.5 41q26 26 41 61t15 75t-15 74.5t-41 61.5
q-27 26 -61.5 41t-74.5 15t-75 -15t-61 -41q-26 -27 -41 -61.5t-15 -74.5t15 -75t41 -61t61 -41t75 -15z" />
    <glyph glyph-name="uniE61E.072" 
d="M512 960q66 0 124.5 -25.5t101.5 -68.5t68.5 -101.5t25.5 -124.5q0 -120 -50 -245t-110 -227t-110 -167l-50 -65l-50 65t-110 167t-110 227t-50 245q0 66 25 124.5t68 101.5q44 43 102 68.5t125 25.5zM512 444q40 0 76 15.5t62 41.5q27 27 42.5 62.5t15.5 76.5
q0 40 -15.5 76t-42.5 62q-26 27 -62 42.5t-76 15.5q-41 0 -76.5 -15.5t-62.5 -42.5q-26 -26 -41.5 -62t-15.5 -76q0 -41 15.5 -76.5t41.5 -62.5q27 -26 62.5 -41.5t76.5 -15.5zM388 640q0 25 9.5 48t26.5 39q17 17 39.5 27t48.5 10q25 0 48 -10t39 -27q17 -16 27 -39t10 -48
q0 -26 -10 -48.5t-27 -39.5q-16 -17 -39 -26.5t-48 -9.5q-26 0 -48.5 9.5t-39.5 26.5t-26.5 39.5t-9.5 48.5z" />
    <glyph glyph-name="uniE61E.073" 
d="M544 -64h-3.5t-3.5 1q-6 1 -10.5 4t-7.5 7q-4 4 -5.5 9t-1.5 11v480h-480q-6 0 -11 1.5t-9 5.5q-4 3 -7 7.5t-4 10.5q-2 5 -1 10.5t3 10.5t6 8.5t9 6.5l960 448q5 2 10 2.5t9 -0.5q5 -1 9.5 -3t7.5 -6q4 -3 6 -7.5t3 -9.5q1 -4 0.5 -9t-2.5 -10l-448 -960q-2 -4 -5 -7.5
t-7 -5.5q-4 -3 -8.5 -4t-8.5 -1zM176 512h368q6 0 12 -2.5t10 -7.5q5 -4 7.5 -10t2.5 -12v-368l350 750z" />
    <glyph glyph-name="uniE61E.074" 
d="M512 960q106 0 199 -40.5t163 -109.5q69 -70 109.5 -163t40.5 -199t-40.5 -199.5t-109.5 -162.5q-70 -70 -163 -110t-199 -40t-199.5 40t-162.5 110q-70 69 -110 162.5t-40 199.5t40 199t110 163q69 69 162.5 109.5t199.5 40.5zM96 448q0 -41 7.5 -80t22.5 -75
q14 -36 34.5 -68.5t46.5 -60.5l177 412l411 176q-28 26 -60 46.5t-68 35.5q-36 14 -75 22t-80 8q-86 0 -162 -33t-132 -89q-57 -57 -89.5 -132.5t-32.5 -161.5zM439 521l-110 -256l256 110zM512 32q86 0 161.5 32.5t132.5 89.5q56 56 89 132t33 162q0 41 -8 80t-22 75
q-15 36 -35.5 68t-46.5 60l-176 -411l-412 -177q28 -26 60.5 -46.5t68.5 -34.5q36 -15 75 -22.5t80 -7.5z" />
    <glyph glyph-name="uniE61E.075" 
d="M0 768l320 128v-768l-320 -128v768zM384 928l320 -192v-736l-320 160v768zM768 736l256 192v-768l-256 -192v768z" />
    <glyph glyph-name="uniE61E.076" 
d="M1024 896v-768l-352 -128l-320 128l-352 -128v768l352 128l320 -128zM384 184l256 -103v631l-256 102v-630zM64 91l256 93v632l-256 -93v-632zM960 804l-256 -93v-632l256 94v631z" />
    <glyph glyph-name="uniE61E.077" horiz-adv-x="1088" 
d="M640 896q93 0 174.5 -35.5t142.5 -95.5q60 -61 95.5 -142.5t35.5 -174.5t-35.5 -174.5t-95.5 -142.5q-61 -61 -142.5 -96t-174.5 -35v96q35 0 69 6.5t66 19.5q31 13 60 32.5t54 44.5t44 53.5t32 60.5t20 65.5t7 69.5q0 35 -7 69t-20 66q-13 31 -32 60t-44 54t-54 44
t-60 32q-32 13 -66 20t-69 7q-36 0 -69.5 -7t-65.5 -20t-60.5 -32t-53.5 -44q-19 -20 -35 -41.5t-28 -44.5t-21 -48t-13 -51h186l-224 -256l-224 256h164q12 81 51 151.5t98 121.5q59 52 134.5 81.5t160.5 29.5zM832 512v-128h-256v320h128v-192h128z" />
    <glyph glyph-name="uniE61E.078" 
d="M658 210l-210 211v283h128v-230l173 -173zM512 960q106 0 199 -40.5t163 -109.5q69 -70 109.5 -163t40.5 -199t-40.5 -199.5t-109.5 -162.5q-70 -70 -163 -110t-199 -40t-199.5 40t-162.5 110q-70 69 -110 162.5t-40 199.5t40 199t110 163q69 69 162.5 109.5t199.5 40.5z
M512 64q79 0 149 30t122 82t82.5 122t30.5 150q0 79 -30.5 149t-82.5 122t-122 82.5t-149 30.5q-80 0 -150 -30.5t-122 -82.5t-82 -122t-30 -149q0 -80 30 -150t82 -122t122 -82t150 -30z" />
    <glyph glyph-name="uniE61E.079" 
d="M512 960q106 0 199 -40.5t163 -109.5q69 -70 109.5 -163t40.5 -199t-40.5 -199.5t-109.5 -162.5q-70 -70 -163 -110t-199 -40t-199.5 40t-162.5 110q-70 69 -110 162.5t-40 199.5t40 199t110 163q69 69 162.5 109.5t199.5 40.5zM749 301l-173 173v230h-128v-283l210 -211
z" />
    <glyph glyph-name="uniE61E.080" 
d="M512 832q93 0 174.5 -35.5t142.5 -95.5q60 -61 95.5 -142.5t35.5 -174.5t-35.5 -174.5t-95.5 -142.5q-61 -61 -142.5 -96t-174.5 -35t-174.5 35t-142.5 96t-96 142.5t-35 174.5t35 174.5t96 142.5q61 60 142.5 95.5t174.5 35.5zM512 24q74 0 139.5 28t114.5 77
t77.5 114.5t28.5 140.5q0 74 -28.5 139.5t-77.5 114.5t-114.5 77.5t-139.5 28.5q-75 0 -140.5 -28.5t-114.5 -77.5t-77 -114.5t-28 -139.5q0 -75 28 -140.5t77 -114.5t114.5 -77t140.5 -28zM935 673q-28 40 -62.5 74.5t-75.5 61.5q-40 27 -86 46.5t-95 29.5q13 17 29.5 31
t36.5 23q19 10 41 15.5t45 5.5q40 0 74.5 -15t61.5 -41q26 -27 41 -61.5t15 -74.5q0 -13 -2 -25.5t-5 -24.5t-7.5 -23.5t-10.5 -21.5zM408 885q-50 -10 -95.5 -29.5t-86.5 -46.5q-40 -27 -74.5 -61.5t-62.5 -74.5q-6 10 -10.5 21.5t-8.5 23.5q-3 12 -4.5 24.5t-1.5 25.5
q0 40 15 74.5t41 61.5q26 26 61 41t75 15q23 0 44.5 -5.5t41.5 -15.5q19 -9 36 -23t30 -31zM704 384v-64h-256v320h64v-256h192z" />
    <glyph glyph-name="uniE61E.081" 
d="M1024 160v0v0q0 -29 -30.5 -54.5t-83.5 -46.5q-53 -20 -126.5 -34.5t-158.5 -20.5q-8 -15 -20 -27.5t-26 -21.5q-15 -9 -32 -14t-35 -5q-19 0 -35.5 5t-31.5 14t-26.5 21.5t-19.5 27.5q-86 6 -159 20.5t-126 34.5q-54 21 -84 46.5t-30 54.5q0 108 40 160t88 88t88 76
t40 124v2.5v3.5q1 49 16 93.5t40 80.5q26 36 61 61.5t76 37.5q0 2 -0.5 3.5t-0.5 2.5v3.5v2.5q0 13 5 24t14 19q8 8 20 13t25 5t24.5 -5t20.5 -13t14 -19t5 -24v-2.5t-1 -3.5v-2.5t-1 -3.5q37 -10 69 -31.5t57 -52.5q24 -30 41 -67.5t23 -79.5q1 -5 2 -10.5t2 -11.5t1 -12.5
v-13.5q0 -84 40 -124t88 -76t88 -88t40 -160h-1zM826 106q28 7 49 15t36 15t24 13t14 11q-5 4 -14 10.5t-24 13.5t-36 14.5t-49 15.5q-33 9 -69.5 15.5t-76.5 10.5q-40 5 -82.5 7.5t-85.5 2.5q-44 0 -86 -2.5t-82 -7.5q-40 -4 -77 -10.5t-69 -15.5q-28 -8 -49 -15.5
t-36 -14.5t-24.5 -13.5t-14.5 -10.5q5 -5 14.5 -11t24.5 -13t36 -15t49 -15q20 -6 42 -10.5t45 -8.5q24 -4 49 -7t50 -5q2 25 13 46t28 37t39.5 25t47.5 9t47 -9t39 -25q18 -16 28.5 -37t12.5 -46q26 2 51 5t48 7q24 4 46 8.5t42 10.5z" />
    <glyph glyph-name="uniE61E.082" 
d="M512 767q80 -7 150 -41.5t122 -90.5t82 -128.5t30 -154.5q0 -86 -33 -162t-89 -132q-57 -57 -132.5 -89.5t-161.5 -32.5t-162 32.5t-132 89.5q-57 56 -89.5 132t-32.5 162q0 82 29.5 154.5t81.5 128.5t122 90.5t151 41.5v65h-128v64q0 13 5 24.5t13 20.5q9 9 20.5 14
t25.5 5h192q13 0 24.5 -5t20.5 -14t14 -20.5t5 -24.5v-64h-128v-65zM706 125q23 23 40.5 49t29.5 55q11 29 17.5 60t6.5 63t-6.5 63t-17.5 59q-12 29 -29.5 55t-40.5 49q-22 22 -47 39t-52 29q-28 11 -57 18t-60 8l22 -314q0 -10 -2 -17.5t-6 -11.5q-5 -5 -11 -7t-13 -2
q-8 0 -14 2t-10 7q-4 4 -6.5 11.5t-1.5 17.5l22 314q-31 -1 -60.5 -8t-56.5 -18q-28 -12 -53 -29t-47 -39q-22 -23 -39.5 -49t-29.5 -55q-12 -28 -18 -59t-6 -63t6 -63t18 -60t29.5 -55t39.5 -49q23 -22 49 -39.5t55 -29.5t60 -18t63 -6t63 6t59 18q29 12 55 29.5t49 39.5z
" />
    <glyph glyph-name="uniE61E.083" 
d="M320 576h128v-128h-128v128zM512 576h128v-128h-128v128zM704 576h128v-128h-128v128zM128 192h128v-128h-128v128zM320 192h128v-128h-128v128zM512 192h128v-128h-128v128zM320 384h128v-128h-128v128zM512 384h128v-128h-128v128zM704 384h128v-128h-128v128zM128 384
h128v-128h-128v128zM960 960v-1024h-960v1024h128v-64h128v64h448v-64h128v64h128zM896 704h-832v-704h832v704z" />
    <glyph glyph-name="uniE61E.084" 
d="M256 896h512v-128h-512v128zM960 704h-896q-13 0 -25 -5t-20 -14q-9 -9 -14 -20.5t-5 -24.5v-320q0 -13 5 -25t14 -20q8 -9 20 -14t25 -5h192v-256h512v256h192q13 0 24.5 5t20.5 14q9 8 14 20t5 25v320q0 13 -5 24.5t-14 20.5t-20.5 14t-24.5 5zM128 512q-14 0 -25.5 5
t-20.5 13q-8 9 -13 20.5t-5 25.5q0 13 5 24.5t13 20.5q9 9 20.5 14t25.5 5q13 0 24.5 -5t20.5 -14t14 -20.5t5 -24.5q0 -14 -5 -25.5t-14 -20.5q-9 -8 -20.5 -13t-24.5 -5zM704 64h-384v320h384v-320z" />
    <glyph glyph-name="uniE61E.085" horiz-adv-x="1152" 
d="M1088 832q13 0 24.5 -5t20.5 -14t14 -20.5t5 -24.5v-640q0 -13 -5 -25t-14 -20q-9 -9 -20.5 -14t-24.5 -5h-1024q-13 0 -25 5t-20 14q-9 8 -14 20t-5 25v640q0 13 5 24.5t14 20.5q8 9 20 14t25 5h1024zM640 576h128v128h-128v-128zM704 512v-128h128v128h-128zM448 576
h128v128h-128v-128zM512 512v-128h128v128h-128zM256 576h128v128h-128v-128zM320 512v-128h128v128h-128zM128 576h64v128h-64v-128zM128 384h128v128h-128v-128zM192 320h-64v-128h64v128zM768 320h-512v-128h512v128zM1024 320h-192v-128h192v128zM1024 512h-128v-128
h128v128zM1024 704h-192v-128h192v128z" />
    <glyph glyph-name="uniE61E.086" 
d="M1024 896v-640h-1024v640h1024zM960 832h-896v-512h896v512zM704 64l64 -64h-512l64 64l32 128h320z" />
    <glyph glyph-name="uniE61E.087" 
d="M1024 256v-192h-1024v192h128v512q0 13 5 24.5t14 20.5q8 9 20 14t25 5h640q13 0 24.5 -5t20.5 -14t14 -20.5t5 -24.5v-512h128zM640 192h-256v-64h256v64zM832 768v0v0h-640v0v0v-512h640v512z" />
    <glyph glyph-name="uniE61E.088" 
d="M736 960q20 0 37.5 -7.5t30.5 -20.5q13 -14 20.5 -31t7.5 -37v-832q0 -20 -7.5 -37.5t-20.5 -30.5q-14 -13 -31 -20.5t-37 -7.5h-448q-20 0 -37.5 7.5t-30.5 20.5t-20.5 30.5t-7.5 37.5v832q0 20 7.5 37.5t20.5 30.5t30.5 20.5t37.5 7.5h448zM384 880h256v32h-256v-32z
M512 0q13 0 24.5 5t20.5 13q9 9 14 20.5t5 25.5q0 13 -5 24.5t-14 20.5t-20.5 14t-24.5 5q-14 0 -25.5 -5t-20.5 -14q-8 -9 -13 -20.5t-5 -24.5q0 -14 5 -25.5t13 -20.5q9 -8 20.5 -13t25.5 -5zM768 832h-512v-640h512v640z" />
    <glyph glyph-name="uniE61E.089" 
d="M768 960q13 0 24.5 -5t20.5 -14t14 -20.5t5 -24.5v-896q0 -13 -5 -25t-14 -20q-9 -9 -20.5 -14t-24.5 -5h-576q-13 0 -25 5t-20 14q-9 8 -14 20t-5 25v896q0 13 5 24.5t14 20.5q8 9 20 14t25 5h576zM480 -18q10 0 19 4t16 11q7 6 11 15t4 20q0 10 -4 19t-11 16t-16 11
t-19 4q-11 0 -20 -4t-15 -11q-7 -7 -11 -16t-4 -19q0 -11 4 -20t11 -15q6 -7 15 -11t20 -4zM768 832h-576v-704h576v704z" />
    <glyph glyph-name="uniE61E.090" 
d="M800 960q20 0 37.5 -7.5t30.5 -20.5q13 -14 20.5 -31t7.5 -37v-832q0 -20 -7.5 -37.5t-20.5 -30.5q-14 -13 -31 -20.5t-37 -7.5h-640q-20 0 -37.5 7.5t-30.5 20.5t-20.5 30.5t-7.5 37.5v832q0 20 7.5 37.5t20.5 30.5t30.5 20.5t37.5 7.5h640zM480 -32q6 0 12 2.5t10 6.5
q5 4 7.5 10t2.5 13q0 6 -2.5 12t-7.5 10q-4 5 -10 7.5t-12 2.5q-7 0 -13 -2.5t-10 -7.5q-4 -4 -6.5 -10t-2.5 -12q0 -7 2.5 -13t6.5 -10t10 -6.5t13 -2.5zM768 832h-576v-768h576v768z" />
    <glyph glyph-name="uniE61E.091" 
d="M981 672q10 -41 18 -83.5t14 -86.5q5 -44 8 -89.5t3 -92.5t-3 -93t-8 -90q-6 -44 -14 -86.5t-18 -82.5q-54 -8 -110.5 -14t-115.5 -10t-120 -6t-123 -2q-63 0 -124 2t-120 6q-58 4 -115 10t-110 14q-11 40 -19 82.5t-13 86.5q-6 44 -8.5 90t-2.5 93t2.5 92.5t8.5 89.5
q5 44 13 86.5t19 83.5q40 5 81.5 10t84.5 9t87.5 6.5t89.5 4.5l-194 194l64 64l256 -256v0h16h16t15.5 -0.5t15.5 -0.5l225 225l64 -64l-165 -165q37 -2 73 -4.5t72 -6.5q35 -3 69.5 -7.5t67.5 -8.5zM864 85q7 27 13 55.5t10 57.5q5 30 7 60t2 62q0 31 -2 61.5t-7 59.5
q-4 30 -10 58t-13 55q-41 6 -83.5 9.5t-86.5 6.5t-89.5 4.5t-92.5 1.5t-93 -1.5t-90 -4.5t-86.5 -6.5t-82.5 -9.5q-8 -27 -14 -55t-10 -58q-4 -29 -6 -59.5t-2 -61.5q0 -32 2 -62t6 -60q4 -29 10 -57.5t14 -55.5q40 -5 82.5 -9t86.5 -7q44 -2 90 -3.5t93 -1.5t92.5 1.5
t89.5 3.5q44 3 86.5 7t83.5 9z" />
    <glyph glyph-name="uniE61E.092" 
d="M1017 308q1 -2 2.5 -4.5t2.5 -5.5q1 -2 1.5 -5t0.5 -5v-288q0 -14 -5 -25.5t-14 -20.5q-9 -8 -20.5 -13t-24.5 -5h-896q-14 0 -25.5 5t-20.5 13q-8 9 -13 20.5t-5 25.5v288q0 2 0.5 5t1.5 5q0 3 1.5 5.5t3.5 4.5l256 320q2 3 5 5l6 4q3 1 6.5 2t7.5 1h448q3 0 6.5 -1
t7.5 -2q3 -2 5.5 -4t5.5 -5zM960 277l-240 299h-417l-239 -299v-21h224l128 -128h192l128 128h224v21zM736 448h-448q-7 0 -13 2.5t-10 6.5t-6.5 10t-2.5 13q0 6 2.5 12t6.5 10q4 5 10 7.5t13 2.5h448q6 0 12 -2.5t10 -7.5q5 -4 7.5 -10t2.5 -12q0 -7 -2.5 -13t-7.5 -10
q-4 -4 -10 -6.5t-12 -2.5zM800 320h-576q-7 0 -13 2.5t-10 6.5t-6.5 10t-2.5 13q0 6 2.5 12t6.5 10q4 5 10 7.5t13 2.5h576q6 0 12 -2.5t10 -7.5q5 -4 7.5 -10t2.5 -12q0 -7 -2.5 -13t-7.5 -10q-4 -4 -10 -6.5t-12 -2.5z" />
    <glyph glyph-name="uniE61E.093" 
d="M1017 308q1 -2 2.5 -4.5t2.5 -5.5q1 -2 1.5 -5t0.5 -5v-288q0 -14 -5 -25.5t-14 -20.5q-9 -8 -20.5 -13t-24.5 -5h-896q-14 0 -25.5 5t-20.5 13q-8 9 -13 20.5t-5 25.5v288q0 2 0.5 5t1.5 5q0 3 1.5 5.5t3.5 4.5l256 320q2 3 5 5l6 4q3 1 6.5 2t7.5 1h448q3 0 6.5 -1
t7.5 -2q3 -2 5.5 -4t5.5 -5zM960 277l-240 299h-417l-239 -299v-21h224l128 -128h192l128 128h224v21z" />
    <glyph glyph-name="uniE61E.094" 
d="M1024 704v-672q0 -7 -2.5 -13t-7.5 -10q-4 -4 -10 -6.5t-12 -2.5h-960q-7 0 -13 2.5t-10 6.5t-6.5 10t-2.5 13v672l192 192h640zM832 384h-192v192h-256v-192h-192l320 -256zM869 768l-64 64h-587l-64 -64h715z" />
    <glyph glyph-name="uniE61E.095" 
d="M1024 704v-672q0 -7 -2.5 -13t-7.5 -10q-4 -4 -10 -6.5t-12 -2.5h-960q-7 0 -13 2.5t-10 6.5t-6.5 10t-2.5 13v672l192 192h640zM832 320l-320 256l-320 -256h192v-192h256v192h192zM869 768l-64 64h-587l-64 -64h715z" />
    <glyph glyph-name="uniE61E.096" 
d="M256 640h192v256h128v-256h192l-256 -256zM1024 384v-256l-512 -192l-512 192v256l279 104l72 -71l-260 -97l421 -157l421 157l-260 97l71 71z" />
    <glyph glyph-name="uniE61E.097" 
d="M448 640h-192l256 256l256 -256h-192v-256h-128v256zM1024 384v-256l-512 -192l-512 192v256l384 144v-99l-293 -109l421 -157l421 157l-293 109v99z" />
    <glyph glyph-name="uniE61E.098" 
d="M1024 832v-896h-1024v1024h896zM512 576h128v256h-128v-256zM896 779l-53 53h-75v-320h-576v320h-64v-768h768v715z" />
    <glyph glyph-name="uniE61E.099" 
d="M192 64q-40 0 -75 15t-61 41t-41 61t-15 75h1024q0 -40 -15 -75t-41 -61q-27 -26 -61.5 -41t-74.5 -15h-640zM832 128h64v64h-64v-64zM1024 320h-1024l64 512h896z" />
    <glyph glyph-name="uniE61E.100" 
d="M512 960q106 0 199 -12.5t163 -34.5q69 -22 109.5 -51t40.5 -62v-128q0 -33 -40.5 -62.5t-109.5 -50.5q-70 -22 -163 -34.5t-199 -12.5t-199.5 12.5t-162.5 34.5q-70 21 -110 50.5t-40 62.5v128q0 33 40 62t110 51q69 22 162.5 34.5t199.5 12.5zM512 416q106 0 199 12.5
t163 34.5q69 21 109.5 50.5t40.5 62.5v-192q0 -33 -40.5 -62.5t-109.5 -50.5q-70 -22 -163 -34.5t-199 -12.5t-199.5 12.5t-162.5 34.5q-70 21 -110 50.5t-40 62.5v192q0 -33 40 -62.5t110 -50.5q69 -22 162.5 -34.5t199.5 -12.5zM512 128q106 0 199 12.5t163 34.5
q69 21 109.5 50.5t40.5 62.5v-192q0 -33 -40.5 -62.5t-109.5 -50.5q-70 -22 -163 -34.5t-199 -12.5t-199.5 12.5t-162.5 34.5q-70 21 -110 50.5t-40 62.5v192q0 -33 40 -62.5t110 -50.5q69 -22 162.5 -34.5t199.5 -12.5z" />
    <glyph glyph-name="uniE61E.101" 
d="M512 896q106 0 199 -40.5t163 -109.5q69 -70 109.5 -163t40.5 -199q0 -58 -12.5 -112t-34.5 -102q-23 -49 -55 -92t-72 -78l-84 96q30 26 54 58t41 69t26 77.5t9 83.5q0 79 -30.5 149t-82.5 122t-122 82.5t-149 30.5q-40 0 -77.5 -8t-72.5 -22q-34 -15 -65 -36t-57 -47
l144 -143h-384v384l150 -150q34 35 75.5 62.5t86.5 47.5q46 19 96.5 29.5t103.5 10.5z" />
    <glyph glyph-name="uniE61E.102" 
d="M0 384q0 106 40 199t110 163q69 69 162.5 109.5t199.5 40.5q53 0 103 -10.5t96 -29.5q46 -20 87 -47.5t76 -62.5l150 150v-384h-384l143 143q-26 26 -56.5 47t-65.5 36q-34 14 -71.5 22t-77.5 8q-80 0 -150 -30.5t-122 -82.5t-82 -122t-30 -149q0 -43 9 -83.5t26 -77.5
t41 -69t54 -58l-85 -96q-40 35 -72 78t-54 92q-23 48 -35 102t-12 112z" />
    <glyph glyph-name="uniE61E.103" 
d="M762 -64q42 77 61 168t-8 168q-28 77 -114 127.5t-253 46.5v-254l-384 384l384 384v-249q200 6 314 -72t149 -196q35 -119 -4.5 -256t-144.5 -251z" />
    <glyph glyph-name="uniE61E.104" 
d="M576 711v249l384 -384l-384 -384v254q-168 4 -254 -46.5t-113 -127.5q-28 -77 -9 -168t62 -168q-105 114 -144.5 251t-4.5 256q35 118 148.5 196t314.5 72z" />
    <glyph glyph-name="uniE61E.105" 
d="M262 960q-43 -78 -62 -168.5t9 -167.5q27 -78 113 -128t254 -46v254l384 -384l-384 -384v248q-201 -5 -314.5 73t-148.5 196t4.5 255.5t144.5 251.5z" />
    <glyph glyph-name="uniE61E.106" 
d="M448 184v-248l-384 384l384 384v-254q167 -4 253 46t114 128q27 77 8 167.5t-61 168.5q105 -114 144.5 -251.5t4.5 -255.5t-149 -196t-314 -73z" />
    <glyph glyph-name="uniE61E.107" 
d="M512 896q106 0 199 -33t163 -89q69 -57 109.5 -132.5t40.5 -161.5t-40.5 -162t-109.5 -132q-70 -57 -163 -89.5t-199 -32.5h-20.5t-20.5 1t-19.5 2t-19.5 2q-41 -41 -86 -66.5t-92 -40.5q-47 -14 -95 -19.5t-95 -6.5v27q25 13 48.5 30.5t40.5 38.5q18 21 28.5 45.5
t10.5 50.5q0 3 -0.5 7t-0.5 7q0 4 -0.5 7.5t-0.5 6.5q-44 29 -79 65t-60 77q-24 41 -37.5 87t-13.5 95q0 86 40 161.5t110 132.5q69 56 162.5 89t199.5 33z" />
    <glyph glyph-name="uniE61E.108" horiz-adv-x="1152" 
d="M1088 59q0 -17 4.5 -33t13.5 -29q8 -14 20 -24.5t26 -18.5v-16q-4 0 -8 -0.5t-8 -0.5t-8.5 -0.5t-8.5 -0.5q-25 0 -49 5.5t-46 14.5q-22 10 -41.5 23.5t-35.5 31.5q-10 -3 -20.5 -5t-20.5 -3q-10 -2 -20.5 -2.5t-21.5 -0.5q-60 0 -112.5 20t-91.5 55q-39 34 -61.5 81
t-22.5 100t22.5 99.5t61.5 81.5t91.5 55t112.5 20q59 0 111.5 -20t91.5 -55t62 -81.5t23 -99.5q0 -21 -3.5 -41t-10.5 -39q-7 -18 -17 -35.5t-23 -33.5q-2 -5 -4 -11t-3 -12q-2 -6 -2.5 -12.5t-0.5 -12.5zM512 960q104 0 196 -32t162 -87q69 -55 110 -128.5t44 -158.5
q-19 8 -38.5 14.5t-39.5 10.5t-40.5 6.5t-41.5 2.5q-36 0 -70.5 -6.5t-67.5 -18.5q-32 -12 -61.5 -29.5t-54.5 -39.5q-27 -24 -47.5 -51.5t-34.5 -57.5t-21 -62.5t-7 -66.5q0 -17 1.5 -33.5t5.5 -32.5q3 -16 8.5 -31.5t11.5 -30.5h-3h-4h-4h-4h-20.5t-20.5 1t-19.5 2
t-19.5 2q-41 -41 -86 -66.5t-92 -40.5q-47 -14 -95 -19.5t-95 -6.5v27q25 13 48.5 30.5t40.5 38.5q18 21 28.5 45.5t10.5 50.5q0 3 -0.5 7t-0.5 7q0 4 -0.5 7.5t-0.5 6.5q-44 29 -79 65t-60 77q-24 41 -37.5 87t-13.5 95q0 86 40 161.5t110 132.5q69 56 162.5 89t199.5 33z
" />
    <glyph glyph-name="uniE61E.109" horiz-adv-x="1152" 
d="M480 960v0q99 0 186.5 -30.5t152.5 -83.5t103 -123.5t38 -151.5q0 -80 -38 -151t-103 -123q-65 -53 -152.5 -83.5t-186.5 -30.5h-19.5t-18.5 1t-18.5 1.5t-18.5 2.5q-39 -39 -80.5 -63t-84.5 -37t-87.5 -18t-88.5 -6v25q24 12 45 28t37 36t25 42.5t9 47.5q0 3 -0.5 6.5
t-0.5 6.5q0 4 -0.5 7t-0.5 6q-41 27 -74 60.5t-56 71.5q-23 39 -35.5 82t-12.5 88q0 81 37.5 151.5t102.5 123.5t152.5 83.5t187.5 30.5zM996 89q0 -21 6.5 -40.5t18.5 -36.5t29 -31t38 -24v-21q-39 1 -76 5t-73 16q-36 11 -70.5 31.5t-67.5 53.5l-16 -2t-16 -1
q-9 -1 -17 -1h-16q-36 0 -70.5 4.5t-66.5 13.5t-61.5 22t-55.5 29q54 0 106.5 8.5t101.5 25.5t93.5 41t83.5 56q20 15 37.5 32.5t32.5 35.5q15 19 28.5 38.5t23.5 40.5q12 22 20.5 45t14.5 46t9 47t3 48v8t-1 8v8t-1 7q28 -22 49.5 -48.5t36.5 -55.5q16 -29 24 -61t8 -66
q0 -39 -11 -76t-31 -70t-48.5 -61.5t-63.5 -51.5q-1 -3 -1.5 -5.5t-0.5 -5.5v-6v-6z" />
    <glyph glyph-name="uniE61E.110" 
d="M512 768q-21 0 -41 -1.5t-40 -5.5q-20 -3 -39 -8t-38 -11q-17 -6 -34 -13.5t-32 -15.5q-16 -8 -30 -18l-28 -20q-24 -21 -43.5 -43.5t-32.5 -47.5t-19.5 -51t-6.5 -53q0 -15 2 -30t6 -30q4 -14 10.5 -28.5t14.5 -27.5q9 -15 19.5 -28.5t22.5 -25.5q13 -13 27 -24.5
t30 -22.5q11 -7 20.5 -16.5t16.5 -21.5q8 -11 12.5 -23.5t6.5 -26.5q1 -4 1.5 -8.5t0.5 -9.5q1 -4 1 -8.5t1 -9.5q2 3 5 5t6 5l5 5l5 5q9 9 20 16t22 12q12 5 24 7.5t25 2.5h4h4q2 -1 4 -1h4l16 -2t16 -1q8 -1 16 -1h16q20 0 40.5 1.5t40.5 4.5q19 3 38.5 8t37.5 11
q18 7 34.5 14t32.5 15q15 9 29.5 18.5t27.5 20.5q25 20 44 43t32 48q13 24 20 50.5t7 53.5t-7 53t-20 51t-32 47.5t-44 43.5q-13 10 -27.5 20t-29.5 18q-16 8 -32.5 15.5t-34.5 13.5t-37.5 11t-38.5 8q-20 4 -40.5 5.5t-40.5 1.5zM512 896v0q106 0 199 -33t163 -89
q69 -57 109.5 -132.5t40.5 -161.5t-40.5 -162t-109.5 -132q-70 -57 -163 -89.5t-199 -32.5h-20.5t-20.5 1t-19.5 2t-19.5 2q-41 -41 -86 -66.5t-92 -40.5q-47 -14 -95 -19.5t-95 -6.5v27q25 13 48.5 30.5t40.5 38.5q18 21 28.5 45.5t10.5 50.5q0 3 -0.5 7t-0.5 7
q0 4 -0.5 7.5t-0.5 6.5q-44 29 -79 65t-60 77q-24 41 -37.5 87t-13.5 95q0 86 40 161.5t110 132.5q69 56 162.5 89t199.5 33z" />
    <glyph glyph-name="uniE61E.111" horiz-adv-x="1152" 
d="M1088 59q0 -17 4.5 -33t13.5 -29q8 -14 20 -24.5t26 -18.5v-16q-4 0 -8 -0.5t-8 -0.5t-8.5 -0.5t-8.5 -0.5q-25 0 -49 5.5t-46 14.5q-22 10 -41.5 23.5t-35.5 31.5q-10 -3 -20.5 -5t-20.5 -3q-10 -2 -20.5 -2.5t-21.5 -0.5q-60 0 -112.5 20t-91.5 55q-39 34 -61.5 81
t-22.5 100t22.5 99.5t61.5 81.5t91.5 55t112.5 20q59 0 111.5 -20t91.5 -55t62 -81.5t23 -99.5q0 -21 -3.5 -41t-10.5 -39q-7 -18 -17 -35.5t-23 -33.5q-2 -5 -4 -11t-3 -12q-2 -6 -2.5 -12.5t-0.5 -12.5zM230 739q-24 -21 -43.5 -43.5t-32.5 -47.5t-19.5 -51t-6.5 -53
q0 -15 2 -30t6 -30q4 -14 10.5 -28.5t14.5 -27.5q9 -15 19.5 -28.5t22.5 -25.5q13 -13 27 -24.5t30 -22.5q11 -7 20.5 -16.5t16.5 -21.5q8 -11 12.5 -23.5t6.5 -26.5q1 -4 1.5 -8.5t0.5 -9.5q1 -4 1 -8.5t1 -9.5q2 3 5 5t6 5l5 5l5 5q9 9 20 16t22 12q12 5 24 7.5t25 2.5h4
h4q2 -1 4 -1h4l16 -2t16 -1q8 -1 16 -1h16v-128h-21t-20 1t-19.5 2t-19.5 2q-41 -41 -86 -66.5t-92 -40.5q-47 -14 -95 -19.5t-95 -6.5v27q25 13 48.5 30.5t40.5 38.5q18 21 28.5 45.5t10.5 50.5q0 3 -0.5 7t-0.5 7q0 4 -0.5 7.5t-0.5 6.5q-44 29 -79 65t-60 77
q-24 41 -37.5 87t-13.5 95q0 86 40 161.5t110 132.5q69 56 162.5 89t199.5 33q104 0 196 -32t162 -87q69 -55 110 -128.5t44 -158.5q-16 7 -32 12.5t-33 9.5q-16 4 -33 7t-35 4q-4 21 -12.5 41t-20.5 40q-13 19 -29 36.5t-36 34.5q-13 10 -27.5 20t-29.5 18
q-16 8 -32.5 15.5t-34.5 13.5t-37.5 11t-38.5 8q-20 4 -40.5 5.5t-40.5 1.5q-21 0 -41 -1.5t-40 -5.5q-20 -3 -39 -8t-38 -11q-17 -6 -34 -13.5t-32 -15.5q-16 -8 -30 -18z" />
    <glyph glyph-name="uniE61E.112" horiz-adv-x="1152" 
d="M480 832q-19 0 -38 -1.5t-37 -4.5t-35.5 -7.5t-35.5 -10.5q-16 -5 -31 -12t-29 -14q-15 -8 -28 -17t-25 -19q-23 -18 -40 -38.5t-29 -42.5t-18 -46t-6 -48q0 -13 2 -26.5t5 -26.5q4 -13 9.5 -25.5t13.5 -25.5q7 -12 17 -24.5t21 -24.5q12 -11 25 -21.5t27 -20.5
q11 -7 20.5 -16.5t16.5 -21.5q8 -11 12.5 -23.5t6.5 -26.5q1 -2 1 -4t1 -5v-4v-5q1 1 2.5 2t2.5 2l2 2l2 2q9 9 19.5 16t21.5 12q12 5 24 7.5t25 2.5q2 0 4 -0.5t4 -0.5h4h4q7 -1 14.5 -2t14.5 -1q8 -1 15 -1h15q19 0 37.5 1.5t36.5 4.5t36 7.5t35 9.5q16 6 31.5 12.5
t29.5 14.5t27 16.5t26 18.5q22 18 39.5 39t29.5 43t18 45.5t6 47.5t-6 48t-18 46t-29.5 42.5t-39.5 38.5q-13 10 -26 19t-27 17q-14 7 -29.5 14t-31.5 12q-17 6 -35 10.5t-36 7.5t-36.5 4.5t-37.5 1.5zM480 960v0q99 0 186.5 -30.5t152.5 -83.5t103 -123.5t38 -151.5
q0 -80 -38 -151t-103 -123q-65 -53 -152.5 -83.5t-186.5 -30.5h-19.5t-18.5 1t-18.5 1.5t-18.5 2.5q-39 -39 -80.5 -63t-84.5 -37t-87.5 -18t-88.5 -6v25q24 12 45 28t37 36t25 42.5t9 47.5q0 3 -0.5 6.5t-0.5 6.5q0 4 -0.5 7t-0.5 6q-41 27 -74 60.5t-56 71.5
q-23 39 -35.5 82t-12.5 88q0 81 37.5 151.5t102.5 123.5t152.5 83.5t187.5 30.5zM996 89q0 -21 6.5 -40.5t18.5 -36.5t29 -31t38 -24v-21q-39 1 -76 5t-73 16q-36 11 -70.5 31.5t-67.5 53.5l-16 -2t-16 -1q-9 -1 -17 -1h-16q-36 0 -70.5 4.5t-66.5 13.5t-61.5 22t-55.5 29
q54 0 106.5 8.5t101.5 25.5t93.5 41t83.5 56q20 15 37.5 32.5t32.5 35.5q15 19 28.5 38.5t23.5 40.5q12 22 20.5 45t14.5 46t9 47t3 48v8t-1 8v8t-1 7q28 -22 49.5 -48.5t36.5 -55.5q16 -29 24 -61t8 -66q0 -39 -11 -76t-31 -70t-48.5 -61.5t-63.5 -51.5q-1 -3 -1.5 -5.5
t-0.5 -5.5v-6v-6z" />
    <glyph glyph-name="uniE61E.113" 
d="M576 253q81 -7 151.5 -29t121.5 -56q52 -34 81.5 -77t29.5 -91h-896q0 48 29.5 91t80.5 77q52 34 122 56t152 29v53q-27 15 -50 40t-41 57q-17 31 -27 67.5t-10 73.5q0 59 3 111.5t21 91.5t57 62t111 23t111 -23t57 -62t21 -91.5t3 -111.5q0 -37 -10 -73.5t-28 -67.5
q-17 -32 -40.5 -57t-49.5 -40v-53v0z" />
    <glyph glyph-name="uniE61E.114" horiz-adv-x="1152" 
d="M768 189q81 -7 151.5 -29t121.5 -56q52 -34 81.5 -77t29.5 -91h-896q0 48 29.5 91t80.5 77q52 34 122 56t152 29v53q-27 15 -50 40t-41 57q-17 31 -27 67.5t-10 73.5q0 59 3 111.5t21 91.5t57 62t111 23t111 -23t57 -62t21 -91.5t3 -111.5q0 -37 -10 -73.5t-28 -67.5
q-17 -32 -40.5 -57t-49.5 -40v-53zM327 164q-7 -4 -13 -8.5t-12 -8.5q-6 -5 -12 -9.5t-11 -9.5h-279q0 48 29.5 91t80.5 77q52 34 122 56t152 29v53q-27 15 -50 40t-41 57q-17 31 -27 67.5t-10 73.5q0 59 3 111.5t21 91.5t57 62t111 23q45 0 76.5 -9t52.5 -26q22 -17 34 -40
t19 -52q-29 -6 -53 -16t-44 -25t-36 -34.5t-27 -43.5q-11 -25 -17.5 -52.5t-8.5 -57.5q-3 -30 -3.5 -61t-0.5 -63q0 -23 3 -45.5t9 -44.5q5 -22 14 -43.5t20 -42.5q5 -8 9.5 -16t9.5 -15t10.5 -14t11.5 -14q-29 -6 -56 -14.5t-52 -18.5t-48 -22t-44 -26z" />
    <glyph glyph-name="uniE61E.115" 
d="M384 224q0 -13 0.5 -25t2.5 -24t4.5 -24t5.5 -23h-397q0 48 29.5 91t80.5 77q52 34 122 56t152 29v53q-27 15 -50 40t-41 57q-17 31 -27 67.5t-10 73.5q0 59 3 111.5t21 91.5t57 62t111 23t111 -23t57 -62t21 -91.5t3 -111.5q0 -15 -2 -30.5t-5 -30.5t-8 -29t-11 -28
q-51 -19 -93 -51.5t-73 -75.5q-30 -43 -47 -95t-17 -108zM736 512q59 0 111.5 -23t91.5 -62t62 -91.5t23 -111.5q0 -60 -23 -112.5t-62 -91.5t-91.5 -61.5t-111.5 -22.5q-60 0 -112.5 22.5t-91.5 61.5t-61.5 91.5t-22.5 112.5q0 59 22.5 111.5t61.5 91.5t91.5 62t112.5 23z
M896 256h-128v128h-64v-128h-128v-64h128v-128h64v128h128v64z" />
    <glyph glyph-name="uniE61E.116" 
d="M384 224q0 -13 0.5 -25t2.5 -24t4.5 -24t5.5 -23h-397q0 48 29.5 91t80.5 77q52 34 122 56t152 29v53q-27 15 -50 40t-41 57q-17 31 -27 67.5t-10 73.5q0 59 3 111.5t21 91.5t57 62t111 23t111 -23t57 -62t21 -91.5t3 -111.5q0 -15 -2 -30.5t-5 -30.5t-8 -29t-11 -28
q-51 -19 -93 -51.5t-73 -75.5q-30 -43 -47 -95t-17 -108zM736 512q59 0 111.5 -23t91.5 -62t62 -91.5t23 -111.5q0 -60 -23 -112.5t-62 -91.5t-91.5 -61.5t-111.5 -22.5q-60 0 -112.5 22.5t-91.5 61.5t-61.5 91.5t-22.5 112.5q0 59 22.5 111.5t61.5 91.5t91.5 62t112.5 23z
M896 256h-320v-64h320v64z" />
    <glyph glyph-name="uniE61E.117" 
d="M1024 288l-352 -352l-160 160l64 64l96 -96l288 288zM448 128h-448q0 48 29.5 91t80.5 77q52 34 122 56t152 29v53q-27 15 -50 40t-41 57q-17 31 -27 67.5t-10 73.5q0 59 3 111.5t21 91.5t57 62t111 23t111 -23t57 -62t21 -91.5t3 -111.5q0 -37 -10 -73.5t-28 -67.5
q-17 -32 -40.5 -57t-49.5 -40v-53q37 -3 72.5 -9.5t67.5 -15.5q32 -10 61.5 -22t54.5 -27v-115h-320v-64z" />
    <glyph glyph-name="uniE768" unicode="&#xe768;" 
d="M637 790l208 -209l-527 -531l-209 210zM1003 841q21 -21 21 -50.5t-21 -50.5l-104 -105l-208 210l89 89q27 27 65 27t65 -27zM53 203l208 -210l-232 -56q-13 -3 -22 6t-7 22z" />
    <glyph glyph-name="uniE61E.119" 
d="M225 512q46 0 87 -17.5t71 -48.5q31 -30 48.5 -71t17.5 -87q0 -47 -17.5 -87.5t-48.5 -71.5q-30 -30 -71 -47.5t-87 -17.5q-47 0 -87.5 17.5t-71.5 47.5q-30 31 -47.5 71.5t-17.5 87.5l-1 32q0 93 35 174.5t96 142.5q61 60 142.5 95.5t174.5 35.5v-128q-32 0 -63 -6.5
t-60 -17.5q-29 -12 -55 -29.5t-49 -40.5q-4 -4 -8 -8.5t-8 -9.5t-8 -9.5t-7 -9.5q4 1 8.5 1.5t8.5 0.5t8.5 0.5t9.5 0.5zM801 512q46 0 87 -17.5t71 -48.5q31 -30 48.5 -71t17.5 -87q0 -47 -17.5 -87.5t-48.5 -71.5q-30 -30 -71 -47.5t-87 -17.5q-47 0 -87.5 17.5
t-71.5 47.5q-30 31 -47.5 71.5t-17.5 87.5l-1 32q0 93 35 174.5t96 142.5q61 60 142.5 95.5t174.5 35.5v-128q-32 0 -63 -6.5t-60 -17.5q-29 -12 -55 -29.5t-49 -40.5q-4 -4 -8 -8.5t-8 -9.5t-8 -9.5t-7 -9.5q4 1 8.5 1.5t8.5 0.5t8.5 0.5t9.5 0.5z" />
    <glyph glyph-name="uniE61E.120" 
d="M800 320q-47 0 -87.5 17.5t-71.5 47.5q-30 31 -47.5 71.5t-17.5 87.5q0 46 17.5 87t47.5 71q31 31 71.5 48.5t87.5 17.5q46 0 87 -17.5t71 -48.5q31 -30 48.5 -71t17.5 -87l1 -32q0 -93 -35.5 -174.5t-95.5 -142.5q-61 -61 -142.5 -96t-174.5 -35v128q32 0 63 6t59 18
q29 12 55 29.5t49 39.5q4 5 8.5 9.5l8.5 8.5q4 5 7.5 10t7.5 9q-4 0 -8.5 -0.5t-9.5 -1.5h-8.5h-8.5zM224 320q-47 0 -87.5 17.5t-71.5 47.5q-30 31 -47.5 71.5t-17.5 87.5q0 46 17.5 87t47.5 71q31 31 71.5 48.5t87.5 17.5q46 0 87 -17.5t71 -48.5q31 -30 48.5 -71
t17.5 -87l1 -32q0 -93 -35.5 -174.5t-95.5 -142.5q-61 -61 -142.5 -96t-174.5 -35v128q32 0 63 6t59 18q29 12 55 29.5t49 39.5q4 5 8.5 9.5l8.5 8.5q4 5 7.5 10t7.5 9q-4 0 -8.5 -0.5t-9.5 -1.5h-8.5h-8.5z" />
    <glyph glyph-name="uniE61E.121" 
d="M729 448q51 -33 94 -80t73 -105q30 -57 47 -124t17 -139q0 -8 -0.5 -16.5t-0.5 -16.5q-1 -8 -1.5 -15.5t-1.5 -15.5h-889q-1 8 -1.5 15.5t-0.5 15.5q-1 8 -1 16.5v16.5q0 72 16.5 139t47.5 124q30 58 72.5 105t94.5 80q-52 33 -94.5 79.5t-72.5 104.5q-31 58 -47.5 124.5
t-16.5 139.5v16t1 16q0 8 0.5 16t1.5 16h889q1 -8 1.5 -16t1.5 -16q0 -8 0.5 -16t0.5 -16q0 -73 -17 -139.5t-47 -124.5t-73 -104.5t-94 -79.5zM864 0q0 70 -15 133.5t-43 115.5q-29 52 -70.5 90.5t-95.5 57.5v101q54 20 95.5 58t70.5 90q28 53 43 116.5t15 133.5h-704v0
q0 -70 14.5 -133.5t43.5 -116.5q28 -52 70 -90t96 -58v-101q-54 -19 -96 -57.5t-70 -90.5q-29 -52 -43.5 -115.5t-14.5 -133.5h704zM619 290q28 -16 51.5 -39t41.5 -52q19 -29 31.5 -63t19.5 -72h-502q6 37 19 71.5t31 63.5q19 29 42.5 52t50.5 39q27 15 42 32t23 34
q7 17 9 32.5t2 27.5v64q0 12 -2 27.5t-9 31.5q-8 17 -23 34t-42 32q-14 9 -27.5 19.5t-25.5 22.5q-13 13 -24 27t-20 30h410q-10 -16 -21 -30t-23 -27q-12 -12 -25.5 -22.5t-28.5 -19.5q-26 -15 -41.5 -32t-22.5 -34q-8 -16 -9.5 -31.5t-1.5 -27.5v-64q0 -12 1.5 -27.5
t9.5 -32.5q7 -17 22.5 -34t41.5 -32z" />
    <glyph glyph-name="uniE61E.122" 
d="M384 832q0 26 10 49.5t27 40.5q18 18 41 28t50 10q26 0 49.5 -10t40.5 -28q18 -17 28 -40.5t10 -49.5q0 -27 -10 -50t-28 -41q-17 -17 -40.5 -27t-49.5 -10q-27 0 -50 10t-41 27q-17 18 -27 41t-10 50zM655 719q0 27 10 50t28 41q17 17 40.5 27t49.5 10q27 0 50 -10
t41 -27q17 -18 27 -41t10 -50q0 -26 -10 -49.5t-27 -40.5q-18 -18 -41 -28t-50 -10q-26 0 -49.5 10t-40.5 28q-18 17 -28 40.5t-10 49.5zM832 448q0 13 5 24.5t13 20.5q9 9 20.5 14t25.5 5q13 0 24.5 -5t20.5 -14t14 -20.5t5 -24.5q0 -14 -5 -25.5t-14 -20.5
q-9 -8 -20.5 -13t-24.5 -5q-14 0 -25.5 5t-20.5 13q-8 9 -13 20.5t-5 25.5zM719 176q0 13 5 25t14 20q9 9 20.5 14t24.5 5q14 0 25.5 -5t20.5 -14q8 -8 13 -20t5 -25t-5 -24.5t-13 -20.5q-9 -9 -20.5 -14t-25.5 -5q-13 0 -24.5 5t-20.5 14t-14 20.5t-5 24.5zM448 64v0v0
q0 13 5 24.5t13 20.5q9 9 20.5 14t25.5 5q13 0 24.5 -5t20.5 -14t14 -20.5t5 -24.5v0v0q0 -14 -5 -25.5t-14 -20.5q-9 -8 -20.5 -13t-24.5 -5q-14 0 -25.5 5t-20.5 13q-8 9 -13 20.5t-5 25.5zM176 176v0v0q0 13 5 25t14 20q9 9 20.5 14t24.5 5t25 -5t20 -14q9 -8 14 -20
t5 -25v0v0q0 -13 -5 -24.5t-14 -20.5q-8 -9 -20 -14t-25 -5t-24.5 5t-20.5 14t-14 20.5t-5 24.5zM144 719v0v0q0 20 7.5 37.5t20.5 30.5t30.5 20.5t37.5 7.5t37.5 -7.5t30.5 -20.5t20.5 -30.5t7.5 -37.5v0v0q0 -20 -7.5 -37.5t-20.5 -30.5t-30.5 -20.5t-37.5 -7.5t-37.5 7.5
t-30.5 20.5t-20.5 30.5t-7.5 37.5zM56 448q0 15 5.5 28t15.5 23q10 9 23 15t28 6t28 -6t23 -15q9 -10 15 -23t6 -28t-6 -28t-15 -23q-10 -10 -23 -15.5t-28 -5.5t-28 5.5t-23 15.5t-15.5 23t-5.5 28z" />
    <glyph glyph-name="uniE61E.123" 
d="M1024 448v-3v-3q0 -13 -5 -24.5t-14 -20.5t-20.5 -14t-24.5 -5h-2t-2 1q-2 -14 -4.5 -27t-5.5 -26t-7.5 -26t-9.5 -25q-8 -21 -18 -41t-22 -38q-12 -19 -25.5 -37t-29.5 -34q-15 -16 -32 -30.5t-36 -27.5q-18 -13 -37.5 -24t-40.5 -20t-42.5 -16.5t-43.5 -11.5
q-22 -5 -44.5 -8t-45.5 -3q-23 -1 -46 1t-45 6q-23 4 -45 10t-43 14q-22 9 -42.5 19.5t-39.5 22.5q-20 12 -38 26.5t-35 30.5t-32 33.5t-28 36.5q-14 19 -25.5 39.5t-20.5 42.5q-10 21 -17 43.5t-12 45.5q-5 22 -8 45.5t-3 47.5q-1 23 1 46.5t6 47.5q4 23 10.5 46t14.5 45
q9 22 20 43.5t24 41.5q12 20 27 39t32 36q16 17 34.5 32.5t37.5 29.5q20 14 41 26t43 21q23 10 46 17.5t46 12.5q24 6 48 8.5t49 3.5q24 0 48.5 -1.5t48.5 -6.5q24 -4 47.5 -10.5t46.5 -15.5t45 -20.5t43 -24.5q20 -13 39.5 -28.5t37.5 -32.5t34 -36t30 -39q15 -20 27 -42
t22 -45t18 -46.5t13 -48.5q5 -24 8 -49t4 -50zM922 278q5 12 10 24.5t8 24.5q4 13 7.5 26t5.5 26q-12 1 -22.5 6.5t-18.5 14.5q-7 8 -11.5 19t-4.5 23v3v3v0q0 19 -1 37.5t-5 37.5q-3 19 -8 37t-12 36q-6 18 -15 35t-19 33q-10 17 -22 32t-25 29t-28 26.5t-30 23.5
q-16 12 -33 21.5t-35 17.5q-17 8 -35.5 14t-38.5 10q-19 4 -38.5 6.5t-38.5 3.5q-20 0 -39.5 -1.5t-39.5 -4.5q-19 -3 -38 -8.5t-38 -12.5q-18 -7 -36 -16t-35 -20q-17 -10 -32.5 -22.5t-30.5 -26.5q-14 -14 -27.5 -29t-24.5 -31q-12 -17 -22 -34.5t-18 -36.5
q-8 -18 -14.5 -37.5t-10.5 -38.5q-5 -20 -7.5 -40.5t-2.5 -40.5q-1 -21 0.5 -41.5t5.5 -40.5q3 -20 8.5 -40t13.5 -39q7 -19 16.5 -37.5t20.5 -36.5q11 -17 24 -33.5t27 -31.5t30 -28.5t33 -26.5q17 -12 35.5 -22t37.5 -19q19 -8 39 -14.5t41 -11.5q20 -5 41.5 -7.5
t42.5 -2.5q21 -1 42 0.5t42 5.5t42 9.5t41 13.5t39 17.5t37 21.5q18 11 35 24.5t33 28.5t30 31t26 34q13 18 23.5 37t19.5 39z" />
    <glyph glyph-name="uniE61E.124" 
d="M512 657q-13 0 -23.5 4.5t-18.5 12.5q-9 8 -13.5 19t-4.5 23v179q0 13 4.5 24t13.5 19q8 8 18.5 12.5t23.5 4.5q12 0 23 -4.5t19 -12.5t12.5 -19t4.5 -24v-179q0 -12 -4.5 -23t-12.5 -19t-19 -12.5t-23 -4.5zM512 -37q-8 0 -15 3t-12 8t-8 11.5t-3 14.5v179q0 8 3 14.5
t8 12.5q5 5 12 7.5t15 2.5q7 0 14 -2.5t12 -7.5q5 -6 8 -12.5t3 -14.5v-179q0 -8 -3 -14.5t-8 -11.5t-12 -8t-14 -3zM378 624q-8 0 -15 2t-13 6q-6 3 -11.5 8.5t-9.5 11.5l-90 155q-5 10 -6.5 21.5t1.5 21.5t9.5 19t16.5 15t21 7t21 -2q11 -2 20 -9t14 -17l90 -155
q6 -10 7 -21t-1 -21q-3 -11 -10 -19.5t-17 -14.5q-3 -2 -6.5 -3.5t-6.5 -2.5q-4 -1 -7.5 -1.5t-6.5 -0.5zM736 26q-5 0 -9 1.5t-8 3.5t-7 5t-6 7l-89 155q-4 6 -4.5 13t1.5 13q1 6 5 11.5t10 8.5q6 4 13 4.5t13 -0.5q6 -2 11.5 -6t8.5 -10l90 -155q3 -6 4 -12.5t-1 -13.5
q-2 -6 -6 -11.5t-10 -8.5l-4 -2t-4 -1q-2 -1 -4 -1.5t-4 -0.5zM279 530q-3 0 -6.5 0.5t-6.5 1.5q-3 0 -6.5 1.5t-6.5 3.5l-155 89q-9 6 -15.5 14t-8.5 18q-3 10 -2 20t7 20q5 9 13.5 15t18.5 9q9 3 19.5 1.5t19.5 -6.5l155 -90q10 -5 16 -13.5t9 -17.5q2 -10 1 -20.5
t-7 -19.5q-3 -6 -8 -11t-11 -8q-6 -4 -12.5 -5.5t-13.5 -1.5zM899 194q-2 0 -3.5 0.5t-3.5 0.5q-2 1 -4 1.5t-3 1.5l-156 90q-5 3 -8.5 7.5t-4.5 10.5q-2 5 -1.5 11t4.5 11q3 6 7.5 9.5t10.5 4.5q5 2 11 1t11 -4l155 -89q6 -3 9.5 -8t4.5 -10q2 -6 1 -12t-4 -11
q-2 -4 -5 -6.5t-6 -4.5t-7 -3t-8 -1zM243 399h-179q-10 0 -19 4t-15 10q-7 7 -10.5 16t-3.5 19t3.5 18.5t10.5 15.5q6 7 15 10.5t19 3.5h179q10 0 19 -3.5t15 -10.5q7 -7 11 -15.5t4 -18.5t-4 -19t-11 -16q-6 -6 -15 -10t-19 -4zM959 418v0v0h-179q-6 0 -11.5 2.5t-9.5 6.5
t-6.5 9.5t-2.5 11.5t2.5 11.5t6.5 9.5t9.5 6.5t11.5 2.5v0v0h179q7 0 12 -2.5t10 -6.5q4 -4 6 -9.5t2 -11.5t-2 -11.5t-6 -9.5q-5 -4 -10 -6.5t-12 -2.5zM124 179q-6 0 -11.5 1.5t-10.5 4.5t-9.5 7t-7.5 10q-4 8 -5 16.5t1 17.5q2 8 7.5 15t13.5 12l155 89q8 5 16.5 6
t17.5 -1q8 -3 15 -8t12 -13t6 -17t-2 -17q-2 -8 -7 -15.5t-13 -11.5l-156 -90l-5 -2.5t-6 -1.5q-2 -1 -5 -1.5t-6 -0.5zM744 552q-3 0 -7 1t-7 3q-4 2 -6.5 5t-4.5 6q-4 5 -4.5 11t1.5 12q1 5 4.5 10t8.5 8l156 89q5 4 11 4.5t11 -1.5q6 -1 10.5 -4.5t7.5 -9.5q3 -5 4 -11
t-1 -11q-1 -6 -4.5 -10.5t-9.5 -7.5l-155 -90q-1 -1 -3 -1.5t-4 -1.5q-2 0 -4 -0.5t-4 -0.5zM288 19q-3 0 -5.5 0.5t-5.5 0.5q-2 1 -4.5 2t-5.5 3q-7 4 -12 10.5t-7 13.5q-2 8 -1 16t5 16l90 155q4 7 10.5 12t14.5 7q7 2 15.5 1t15.5 -5q7 -5 12 -11.5t7 -13.5q2 -8 1 -16
t-5 -15l-90 -155q-2 -5 -6 -9t-9 -7q-4 -2 -9.5 -3.5t-10.5 -1.5zM646 651h-4h-4q-1 1 -3 1.5t-4 2.5q-5 3 -8.5 7.5t-5.5 10.5q-1 5 -0.5 11t3.5 11l90 155q3 6 7.5 9.5t10.5 4.5q5 2 11 1t11 -4q6 -3 9.5 -7.5t4.5 -10.5q2 -5 1.5 -11t-4.5 -11l-89 -156q-2 -3 -5 -6
t-6 -5q-4 -2 -7.5 -2.5t-7.5 -0.5z" />
    <glyph glyph-name="uniE61E.125" 
d="M192 448q0 -31 5.5 -61t16.5 -57q11 -28 26.5 -52.5t35.5 -45.5l-115 -158q-37 35 -67 77t-51 90q-21 47 -32 99.5t-11 107.5q0 12 0.5 24t1.5 24t3 24l4 24l185 -60q-1 -5 -1 -9.5t-1 -8.5v-9.5v-8.5zM832 448q0 4 -0.5 8.5t-0.5 9.5q0 4 -0.5 8.5t-0.5 9.5l185 60
q2 -12 3.5 -24t2.5 -24q2 -12 2.5 -24t0.5 -24q0 -55 -11.5 -107.5t-32.5 -99.5q-21 -48 -51 -90t-67 -77l-114 158q19 21 34.5 45.5t26.5 52.5q11 27 17 57t6 61zM576 956q66 -9 126.5 -33.5t111.5 -61.5q52 -38 93 -87.5t68 -107.5l-185 -60q-17 29 -39.5 54.5t-49.5 45.5
q-28 20 -59.5 34t-65.5 21v195zM48 666q28 58 69 107.5t92 87.5q51 37 111.5 61.5t127.5 33.5v-195q-35 -7 -66.5 -21t-58.5 -34t-50 -45.5t-40 -54.5zM759 -1q-28 -15 -57.5 -27t-60.5 -20t-63.5 -12t-65.5 -4q-34 0 -66.5 4t-63.5 12t-60.5 20t-56.5 27l114 157
q15 -6 31 -11.5t33 -9.5q17 -3 34 -5t35 -2q17 0 34.5 2t34.5 5q16 4 32 9.5t31 11.5z" />
    <glyph glyph-name="uniE61E.126" 
d="M512 960q106 0 199 -40.5t163 -109.5q69 -70 109.5 -163t40.5 -199t-40.5 -199.5t-109.5 -162.5q-70 -70 -163 -110t-199 -40t-199.5 40t-162.5 110q-70 69 -110 162.5t-40 199.5t40 199t110 163q69 69 162.5 109.5t199.5 40.5zM512 704q-53 0 -100 -20t-81 -55
q-35 -35 -55 -81.5t-20 -99.5t20 -100t55 -81q34 -35 81 -55t100 -20t99.5 20t81.5 55q35 34 55 81t20 100t-20 99.5t-55 81.5t-81.5 55t-99.5 20zM817 142q31 31 54.5 66.5t39.5 73.5q16 39 24.5 80.5t8.5 85.5q0 43 -8.5 84.5t-24.5 80.5t-39.5 74.5t-54.5 65.5l-68 -68
q49 -49 74 -111t25 -126q0 -65 -25 -127t-74 -111q-23 -24 -50.5 -42t-58.5 -31q-30 -12 -62.5 -18.5t-65.5 -6.5q-34 0 -66.5 6.5t-62.5 18.5q-30 13 -57.5 31t-51.5 42q-49 49 -73.5 111t-24.5 127q0 64 24.5 126t73.5 111v0v0l-68 68q-30 -30 -54 -65.5t-40 -74.5
t-24 -80.5t-8 -84.5q0 -44 8 -85.5t24 -80.5q16 -38 40 -73.5t54 -66.5q31 -30 66.5 -54t73.5 -40q39 -16 80.5 -24t85.5 -8q43 0 84.5 8t80.5 24t74.5 40t65.5 54z" />
    </font>
</defs>
</svg>
